<svg width="24" height="25" viewBox="0 0 24 25" fill="none" xmlns="http://www.w3.org/2000/svg">
<g opacity="0.9">
<path fill-rule="evenodd" clip-rule="evenodd" d="M6 21.5H4C3.448 21.5 3 21.052 3 20.5V14.5C3 13.948 3.448 13.5 4 13.5H6C6.552 13.5 7 13.948 7 14.5V20.5C7 21.052 6.552 21.5 6 21.5Z" stroke="#6ED8FF" stroke-width="1.5" stroke-linecap="round" stroke-linejoin="round"/>
<path d="M13 17.4999H15.333C15.766 17.4999 16.187 17.3599 16.533 17.0999L18.949 15.2879C19.552 14.8359 20.396 14.8959 20.929 15.4289V15.4289C21.521 16.0209 21.521 16.9799 20.929 17.5709L18.856 19.6439C18.298 20.2019 17.586 20.5829 16.812 20.7379L13.882 21.3239C13.301 21.4399 12.702 21.4259 12.127 21.2819L9.477 20.6199C9.16 20.5399 8.835 20.4999 8.508 20.4999H7" stroke="#6ED8FF" stroke-width="1.5" stroke-linecap="round" stroke-linejoin="round"/>
<path d="M13 17.5H14.485C15.322 17.5 16 16.822 16 15.985V15.682C16 14.987 15.527 14.381 14.853 14.213L12.561 13.64C12.188 13.547 11.806 13.5 11.422 13.5V13.5C10.495 13.5 9.588 13.774 8.817 14.289L7 15.5" stroke="#6ED8FF" stroke-width="1.5" stroke-linecap="round" stroke-linejoin="round"/>
<path d="M17.1687 5.65521C18.2771 6.76352 18.2771 8.56044 17.1687 9.66875C16.0604 10.7771 14.2635 10.7771 13.1552 9.66875C12.0469 8.56044 12.0469 6.76352 13.1552 5.65521C14.2635 4.5469 16.0604 4.5469 17.1687 5.65521" stroke="#07BCFF" stroke-width="1.5" stroke-linecap="round" stroke-linejoin="round"/>
<path d="M14.631 4.875C14.538 4.31 14.28 3.767 13.844 3.331C12.736 2.223 10.939 2.223 9.831 3.331C8.723 4.439 8.723 6.236 9.831 7.344C10.521 8.034 11.477 8.293 12.368 8.124" stroke="#07BCFF" stroke-width="1.5" stroke-linecap="round" stroke-linejoin="round"/>
</g>
</svg>
