<svg width="24" height="25" viewBox="0 0 24 25" fill="none" xmlns="http://www.w3.org/2000/svg">
<g opacity="0.9">
<path d="M7.84898 8.23501C7.99498 8.38101 7.99498 8.61901 7.84898 8.76501C7.70298 8.91101 7.46498 8.91101 7.31898 8.76501C7.17298 8.61901 7.17298 8.38101 7.31898 8.23501C7.46498 8.08801 7.70198 8.08801 7.84898 8.23501" stroke="#6ED8FF" stroke-width="1.5" stroke-linecap="round" stroke-linejoin="round"/>
<path d="M12.265 8.23501C12.411 8.38101 12.411 8.61901 12.265 8.76501C12.119 8.91101 11.881 8.91101 11.735 8.76501C11.589 8.61901 11.589 8.38101 11.735 8.23501C11.881 8.08801 12.119 8.08801 12.265 8.23501" stroke="#6ED8FF" stroke-width="1.5" stroke-linecap="round" stroke-linejoin="round"/>
<path d="M16.682 8.23501C16.828 8.38101 16.828 8.61901 16.682 8.76501C16.536 8.91101 16.298 8.91101 16.152 8.76501C16.006 8.61901 16.006 8.38101 16.152 8.23501C16.298 8.08801 16.535 8.08801 16.682 8.23501" stroke="#6ED8FF" stroke-width="1.5" stroke-linecap="round" stroke-linejoin="round"/>
<path d="M9 13.5H5C3.895 13.5 3 12.605 3 11.5V5.5C3 4.395 3.895 3.5 5 3.5H19C20.105 3.5 21 4.395 21 5.5V8.5" stroke="#6ED8FF" stroke-width="1.5" stroke-linecap="round" stroke-linejoin="round"/>
<path fill-rule="evenodd" clip-rule="evenodd" d="M12.4351 17.689C12.4351 19.504 14.9771 20.852 16.1441 21.376C16.5121 21.541 16.9231 21.541 17.2911 21.376C18.4581 20.852 21.0001 19.504 21.0001 17.689V14.497C21.0001 13.895 20.6221 13.358 20.0561 13.154L17.8771 12.37C17.1271 12.1 16.3051 12.1 15.5551 12.37L13.3791 13.153C12.8131 13.357 12.4351 13.894 12.4351 14.496L12.4351 17.689Z" stroke="#07BCFF" stroke-width="1.5" stroke-linecap="round" stroke-linejoin="round"/>
</g>
</svg>
