<svg width="48" height="48" viewBox="0 0 48 48" fill="none" xmlns="http://www.w3.org/2000/svg">
<circle opacity="0.3" cx="24" cy="24" r="24" fill="url(#paint0_linear_6405_164)"/>
<path fill-rule="evenodd" clip-rule="evenodd" d="M31.9168 24.9999C27.6941 29.3825 27.6941 36.449 31.9168 40.8316C36.1396 36.4505 36.1396 29.3825 31.9168 24.9999Z" stroke="white" stroke-width="2.02042" stroke-linecap="round" stroke-linejoin="round"/>
<path d="M9.75024 17.0833H38.2502" stroke="white" stroke-width="2.02042" stroke-linecap="round" stroke-linejoin="round"/>
<path d="M20.1527 23.4167H16.0835" stroke="white" stroke-width="2.02042" stroke-linecap="round" stroke-linejoin="round"/>
<path d="M19.2502 32.9167H14.5002C11.8767 32.9167 9.75024 30.7902 9.75024 28.1667V15.5C9.75024 12.8764 11.8767 10.75 14.5002 10.75H33.5002C36.1238 10.75 38.2502 12.8764 38.2502 15.5V21.8333" stroke="white" stroke-width="2.02042" stroke-linecap="round" stroke-linejoin="round"/>
<path fill-rule="evenodd" clip-rule="evenodd" d="M31.9168 25C27.6941 29.3827 27.6941 36.4491 31.9168 40.8317C36.1396 36.4507 36.1396 29.3827 31.9168 25Z" stroke="white" stroke-width="2.02042" stroke-linecap="round" stroke-linejoin="round"/>
<path fill-rule="evenodd" clip-rule="evenodd" d="M39.8333 32.9167C39.8333 37.2993 36.2993 40.8333 31.9167 40.8333C27.534 40.8333 24 37.2993 24 32.9167C24 28.534 27.534 25 31.9167 25C36.2993 25 39.8333 28.534 39.8333 32.9167Z" stroke="white" stroke-width="2.02042" stroke-linecap="round" stroke-linejoin="round"/>
<path d="M24.0034 32.9167H39.8304" stroke="white" stroke-width="2.02042" stroke-linecap="round" stroke-linejoin="round"/>
<defs>
<linearGradient id="paint0_linear_6405_164" x1="24" y1="-7.15256e-07" x2="-1.07288e-06" y2="48" gradientUnits="userSpaceOnUse">
<stop stop-color="white"/>
<stop offset="1" stop-color="white" stop-opacity="0"/>
</linearGradient>
</defs>
</svg>
