<svg width="42" height="42" viewBox="0 0 42 42" fill="none" xmlns="http://www.w3.org/2000/svg">
<path d="M13.3577 18.7705C13.3577 17.346 14.5127 16.191 15.9372 16.191C17.3617 16.191 18.5167 17.346 18.5167 18.7705C18.5167 21.994 13.3577 21.994 13.3577 25.8125H18.5167" stroke="white" stroke-width="1.5" stroke-linecap="round" stroke-linejoin="round"/>
<path d="M27.181 25.8125C27.181 25.8125 27.181 24.283 27.181 23.6163H28.6422H27.181H23.044C22.302 23.6163 21.8347 22.8183 22.2075 22.176C23.2417 20.3963 24.4387 18.382 25.536 16.6075C26.0067 15.8445 27.181 16.1875 27.181 17.0835V23.6163" stroke="white" stroke-width="1.5" stroke-linecap="round" stroke-linejoin="round"/>
<path d="M35.742 8.40527V13.468H30.6792H35.742" stroke="#7C8999" stroke-width="1.5" stroke-linecap="round" stroke-linejoin="round"/>
<path d="M34.8338 13.468C32.1633 8.57325 26.971 5.25 21 5.25C12.3007 5.25 5.25 12.3025 5.25 21C5.25 29.6975 12.3007 36.75 21 36.75C29.6993 36.75 36.75 29.6975 36.75 21" stroke="#7C8999" stroke-width="1.5" stroke-linecap="round" stroke-linejoin="round"/>
</svg>
