<svg width="42" height="42" viewBox="0 0 42 42" fill="none" xmlns="http://www.w3.org/2000/svg">
<path d="M14 7L11.375 9.625" stroke="#7C8999" stroke-width="1.5" stroke-linecap="round" stroke-linejoin="round"/>
<path d="M11.375 4.375L14 7" stroke="#7C8999" stroke-width="1.5" stroke-linecap="round" stroke-linejoin="round"/>
<path d="M14 7H10.5C7.60025 7 5.25 9.35025 5.25 12.25" stroke="#7C8999" stroke-width="1.5" stroke-linecap="round" stroke-linejoin="round"/>
<path d="M28 35L30.625 32.375" stroke="#7C8999" stroke-width="1.5" stroke-linecap="round" stroke-linejoin="round"/>
<path d="M30.625 37.625L28 35" stroke="#7C8999" stroke-width="1.5" stroke-linecap="round" stroke-linejoin="round"/>
<path d="M28 35H31.5C34.3998 35 36.75 32.6498 36.75 29.75" stroke="#7C8999" stroke-width="1.5" stroke-linecap="round" stroke-linejoin="round"/>
<path d="M17.7678 10.7677C18.0163 10.4405 18.2718 10.1167 18.5693 9.81925C22.3126 6.076 28.4376 6.076 32.1808 9.81925C35.9241 13.5625 35.9241 19.6875 32.1808 23.4307C31.8816 23.73 31.5543 23.9802 31.2236 24.2235" stroke="white" stroke-width="1.5" stroke-linecap="round" stroke-linejoin="round"/>
<path d="M16.625 35C21.9187 35 26.2517 30.6687 26.2517 25.3767C26.2517 20.0847 21.9187 15.75 16.625 15.75C11.3312 15.75 7.00171 20.0812 7.00171 25.3767C7.00171 27.5362 7.73146 29.5278 8.94246 31.1378C10.703 33.4758 13.4925 35 16.625 35" stroke="white" stroke-width="1.5" stroke-linecap="round" stroke-linejoin="round"/>
<path d="M16.625 21.4393V20.5643" stroke="white" stroke-width="1.5" stroke-linecap="round" stroke-linejoin="round"/>
<path d="M16.625 29.3143V30.1893" stroke="white" stroke-width="1.5" stroke-linecap="round" stroke-linejoin="round"/>
<path d="M14.3465 28.3745C14.686 28.931 15.267 29.316 15.9688 29.316H16.625H17.4073C18.4258 29.316 19.25 28.49 19.25 27.4733C19.25 26.628 18.6743 25.8913 17.8553 25.6848L15.3947 25.067C14.5757 24.8623 14 24.1255 14 23.2802C14 22.2617 14.826 21.4375 15.8427 21.4375H16.625H17.2812C17.9813 21.4375 18.5605 21.8208 18.9 22.3755" stroke="white" stroke-width="1.5" stroke-linecap="round" stroke-linejoin="round"/>
</svg>
