<svg width="42" height="42" viewBox="0 0 42 42" fill="none" xmlns="http://www.w3.org/2000/svg">
<path d="M35 21V35" stroke="#7C8999" stroke-width="1.5" stroke-linecap="round" stroke-linejoin="round"/>
<path d="M25.7249 25.6725V35" stroke="#7C8999" stroke-width="1.5" stroke-linecap="round" stroke-linejoin="round"/>
<path d="M7 29.75V35" stroke="#7C8999" stroke-width="1.5" stroke-linecap="round" stroke-linejoin="round"/>
<path d="M16.2749 23.8V35" stroke="#7C8999" stroke-width="1.5" stroke-linecap="round" stroke-linejoin="round"/>
<path d="M27.8938 14.89C29.0898 16.0859 29.0898 18.025 27.8938 19.221C26.6978 20.417 24.7587 20.417 23.5628 19.221C22.3668 18.025 22.3668 16.0859 23.5628 14.89C24.7587 13.694 26.6978 13.694 27.8938 14.89" stroke="white" stroke-width="1.5" stroke-linecap="round" stroke-linejoin="round"/>
<path d="M37.3491 7.00972C38.5451 8.2057 38.5451 10.1448 37.3491 11.3407C36.1531 12.5367 34.214 12.5367 33.0181 11.3407C31.8221 10.1448 31.8221 8.20569 33.0181 7.00972C34.2141 5.81374 36.1531 5.81374 37.3491 7.00972" stroke="white" stroke-width="1.5" stroke-linecap="round" stroke-linejoin="round"/>
<path d="M8.98167 16.4545C10.1777 17.6505 10.1777 19.5895 8.98167 20.7855C7.78569 21.9815 5.84662 21.9815 4.65065 20.7855C3.45467 19.5895 3.45467 17.6504 4.65065 16.4545C5.84663 15.2585 7.7857 15.2585 8.98167 16.4545" stroke="white" stroke-width="1.5" stroke-linecap="round" stroke-linejoin="round"/>
<path d="M18.4387 8.57594C19.6347 9.77192 19.6347 11.711 18.4387 12.907C17.2427 14.1029 15.3036 14.1029 14.1077 12.907C12.9117 11.711 12.9117 9.77191 14.1077 8.57594C15.3037 7.37996 17.2427 7.37996 18.4387 8.57594" stroke="white" stroke-width="1.5" stroke-linecap="round" stroke-linejoin="round"/>
<path d="M32.8473 11.13L28.0698 15.1025" stroke="white" stroke-width="1.5" stroke-linecap="round" stroke-linejoin="round"/>
<path d="M23.17 15.365L18.8125 12.4425" stroke="white" stroke-width="1.5" stroke-linecap="round" stroke-linejoin="round"/>
<path d="M9.16992 16.6775L13.9299 12.705" stroke="white" stroke-width="1.5" stroke-linecap="round" stroke-linejoin="round"/>
</svg>
