<svg width="42" height="43" viewBox="0 0 42 43" fill="none" xmlns="http://www.w3.org/2000/svg">
<path d="M17.493 12.05H10.1412C8.407 12.05 7 13.457 7 15.1912V34.1105C7 35.843 8.407 37.25 10.1412 37.25H22.6485C24.3828 37.25 25.7898 35.843 25.7898 34.1087V32.7735" stroke="#7C8999" stroke-width="1.5" stroke-linecap="round" stroke-linejoin="round"/>
<path fill-rule="evenodd" clip-rule="evenodd" d="M16.2663 30.208L27.6571 33.2775C29.5278 33.7815 31.4511 32.6703 31.9498 30.7995L36.6328 13.2225C37.1263 11.3675 36.0151 9.44251 34.1618 8.94201L22.7711 5.87251C20.9003 5.36851 18.9771 6.47976 18.4783 8.35051L13.7953 25.9275C13.3001 27.7913 14.4043 29.7058 16.2663 30.208V30.208Z" stroke="white" stroke-width="1.5" stroke-linecap="round" stroke-linejoin="round"/>
<path d="M19.95 31.195L26.46 6.87" stroke="white" stroke-width="1.5" stroke-linecap="round" stroke-linejoin="round"/>
</svg>
