<svg width="19" height="20" viewBox="0 0 19 20" fill="none" xmlns="http://www.w3.org/2000/svg">
<path fill-rule="evenodd" clip-rule="evenodd" d="M8.72254 6.39871C8.86986 6.10127 9.17308 5.91309 9.505 5.91309C9.83692 5.91309 10.1401 6.10127 10.2875 6.39871L10.9225 7.69241C11.0503 7.95125 11.2981 8.12997 11.584 8.16964L13.0119 8.37754C13.3402 8.42554 13.6129 8.65567 13.7153 8.97127C13.8178 9.28687 13.7323 9.63327 13.4948 9.86497L12.4619 10.8723C12.2569 11.0731 12.1633 11.3616 12.2115 11.6444L12.4553 13.0619C12.511 13.389 12.3765 13.7195 12.1082 13.9147C11.8398 14.1099 11.484 14.1361 11.1899 13.9823L9.9123 13.3104C9.65845 13.1772 9.35533 13.1772 9.10149 13.3104L7.82385 13.9823C7.52978 14.1361 7.17398 14.1099 6.90563 13.9147C6.63728 13.7195 6.50277 13.389 6.55849 13.0619L6.8023 11.6444C6.85045 11.3616 6.75688 11.0731 6.55188 10.8723L5.5171 9.86497C5.27958 9.63327 5.1941 9.28687 5.29656 8.97127C5.39902 8.65567 5.67167 8.42554 6 8.37754L7.42789 8.16964C7.71384 8.12997 7.96157 7.95125 8.08939 7.69241L8.72254 6.39871Z" fill="#07BCFF"/>
<rect opacity="0.5" x="1" y="1.49512" width="17.01" height="17.01" rx="5" stroke="#07BCFF" stroke-width="1.5" stroke-linecap="round" stroke-linejoin="round"/>
</svg>
