<svg width="21" height="22" viewBox="0 0 21 22" fill="none" xmlns="http://www.w3.org/2000/svg">
<path opacity="0.4" d="M3.38208 13.0778L1.75229 14.7076C0.288222 11.2475 0.95956 7.09912 3.78002 4.27971C7.20638 0.853357 12.595 0.596856 16.3222 3.49754" stroke="#41DD83" stroke-width="1.5" stroke-linecap="round" stroke-linejoin="round"/>
<path opacity="0.4" d="M4.67725 18.5026C8.40655 21.4022 13.7941 21.1478 17.2194 17.7204C20.0388 14.901 20.7112 10.7526 19.2472 7.29248L17.6174 8.92227" stroke="#41DD83" stroke-width="1.5" stroke-linecap="round" stroke-linejoin="round"/>
<path d="M8.28198 13.2161L12.7153 8.78271" stroke="#2AB163" stroke-width="1.5" stroke-linecap="round" stroke-linejoin="round"/>
<path d="M12.9245 13.0536C13.028 13.1571 13.028 13.3239 12.9245 13.4262C12.8211 13.5297 12.6543 13.5297 12.5519 13.4262C12.4485 13.3228 12.4485 13.156 12.5519 13.0536C12.6533 12.9502 12.8211 12.9502 12.9245 13.0536" stroke="#2AB163" stroke-width="1.5" stroke-linecap="round" stroke-linejoin="round"/>
<path d="M8.44875 8.57175C8.55219 8.6752 8.55219 8.84303 8.44875 8.94542C8.3453 9.04887 8.17747 9.04887 8.07508 8.94542C7.97163 8.84198 7.97163 8.67414 8.07508 8.57175C8.17852 8.46936 8.3453 8.46936 8.44875 8.57175" stroke="#2AB163" stroke-width="1.5" stroke-linecap="round" stroke-linejoin="round"/>
</svg>
