<svg width="24" height="24" viewBox="0 0 24 24" fill="none" xmlns="http://www.w3.org/2000/svg">
<path d="M11.9995 1C18.0883 1 22.999 5.91065 22.999 11.9995C22.999 18.0883 18.0883 22.9989 11.9995 22.9989" stroke="#07BCFF" stroke-width="2" stroke-linecap="round" stroke-linejoin="round"/>
<path d="M11.9995 22.9989C5.91065 22.9989 1 18.0883 1 11.9995C1 5.91065 5.91065 1 11.9995 1" stroke="#07BCFF" stroke-width="2" stroke-linecap="round" stroke-linejoin="round"/>
<path fill-rule="evenodd" clip-rule="evenodd" d="M9.76037 2.29568C6.22832 8.19261 6.22832 15.8079 9.76037 21.7049C10.7943 23.4318 13.2056 23.4318 14.2396 21.7049C17.7716 15.8079 17.7716 8.19261 14.2396 2.29568C13.2044 0.568759 10.7943 0.568759 9.76037 2.29568Z" stroke="#07BCFF" stroke-width="2" stroke-linecap="round" stroke-linejoin="round"/>
<path d="M2.23438 6.93726C8.2132 8.78395 15.7857 8.78395 21.7633 6.93726" stroke="#07BCFF" stroke-width="2" stroke-linecap="round" stroke-linejoin="round"/>
<path d="M21.7648 17.0613C15.786 15.2146 8.21344 15.2146 2.23584 17.0613" stroke="#07BCFF" stroke-width="2" stroke-linecap="round" stroke-linejoin="round"/>
</svg>
