<svg width="22" height="20" viewBox="0 0 22 20" fill="none" xmlns="http://www.w3.org/2000/svg">
<path fill-rule="evenodd" clip-rule="evenodd" d="M20.583 4.37312C20.354 3.36912 19.676 2.57712 18.814 2.30512C17.255 1.81812 11 1.81812 11 1.81812C11 1.81812 4.748 1.81812 3.186 2.30512C2.327 2.57312 1.649 3.36512 1.417 4.37312C1 6.19512 1 10.0001 1 10.0001C1 10.0001 1 13.8051 1.417 15.6271C1.646 16.6311 2.324 17.4231 3.186 17.6951C4.748 18.1821 11 18.1821 11 18.1821C11 18.1821 17.255 18.1821 18.814 17.6951C19.673 17.4271 20.351 16.6351 20.583 15.6271C21 13.8051 21 10.0001 21 10.0001C21 10.0001 21 6.19512 20.583 4.37312Z" stroke="#475567" stroke-width="2" stroke-linecap="round" stroke-linejoin="round"/>
<path fill-rule="evenodd" clip-rule="evenodd" d="M9.00195 13L14.198 10L9.00195 7V13Z" stroke="#475567" stroke-width="2" stroke-linecap="round" stroke-linejoin="round"/>
</svg>
