<svg width="43" height="21" viewBox="0 0 43 21" fill="none" xmlns="http://www.w3.org/2000/svg">
<path opacity="0.4" fill-rule="evenodd" clip-rule="evenodd" d="M20.8831 0H10.5C4.70101 0 0 4.70101 0 10.5C0 16.299 4.70102 21 10.5 21H20.8831V16.8793H10.5C6.97681 16.8793 4.12069 14.0232 4.12069 10.5C4.12069 6.9768 6.9768 4.12069 10.5 4.12069H20.8831V0Z" fill="#07BCFF"/>
<path fill-rule="evenodd" clip-rule="evenodd" d="M31.5635 4.12069H21.0635C17.5403 4.12069 14.6842 6.9768 14.6842 10.5C14.6842 14.0232 17.5403 16.8793 21.0635 16.8793H31.5635C35.0867 16.8793 37.9428 14.0232 37.9428 10.5C37.9428 6.97681 35.0867 4.12069 31.5635 4.12069ZM21.0635 0C15.2645 0 10.5635 4.70101 10.5635 10.5C10.5635 16.299 15.2645 21 21.0635 21H31.5635C37.3625 21 42.0635 16.299 42.0635 10.5C42.0635 4.70101 37.3625 0 31.5635 0L21.0635 0Z" fill="#07BCFF"/>
</svg>
