<svg width="176" height="49" viewBox="0 0 176 49" fill="none" xmlns="http://www.w3.org/2000/svg">
<path d="M23.6963 23.6899L28.545 28.5386L47.3834 23.6899L28.5382 18.8384L23.6895 0L18.8398 18.8384L23.6913 23.6899H23.6963Z" fill="#07BCFF"/>
<path d="M27.5716 32.9899L23.6908 24.3801L15.1076 20.4897L0 24.3791L18.8398 29.2279L23.6885 48.0677L27.5716 32.9899Z" fill="#0A1D2E"/>
<path d="M116.645 29.456V27.5479H118.223V29.4565C118.223 31.2125 119.35 31.8754 121.381 31.8754C123.386 31.8754 124.513 31.2146 124.513 29.3815V26.8338C124.513 25.4344 123.935 24.5953 122.307 24.5681L120.229 24.4931C118.023 24.4399 116.645 23.8056 116.645 21.4117V18.7896C116.645 15.5533 118.851 15.0212 121.33 15.0212C123.835 15.0212 126.09 15.5533 126.09 18.7129V20.6232H124.512V18.7129C124.512 16.8543 123.284 16.1924 121.329 16.1924C119.4 16.1924 118.222 16.8549 118.222 18.7896V21.1308C118.222 22.5824 118.799 23.2943 120.377 23.3209L122.432 23.3959C124.661 23.4491 126.089 24.185 126.089 26.2485V29.3799C126.089 32.5129 123.785 33.0466 121.38 33.0466C118.951 33.0477 116.645 32.514 116.645 29.456ZM137.106 32.946V16.3456H133.173V15.1229H142.644V16.3467H139.261L138.712 15.7864V32.946H137.106ZM174.296 32.946L171.141 25.8665H168.837L167.658 24.6958H170.641C173.219 24.6958 173.718 23.6998 173.718 21.8699V19.145C173.718 17.3135 173.219 16.319 170.641 16.319H167.658V32.9444H166.079V15.1229H170.641C173.796 15.0995 175.298 15.937 175.298 19.145V21.6656C175.298 24.0829 174.547 25.2306 172.793 25.6643L176 32.9444L174.296 32.946ZM157.561 32.946L153.777 17.2098L150.095 32.9444H148.693L153.027 15.1229H154.856L159.189 32.9444L157.561 32.946ZM108.454 32.946V15.1229H110.032V32.9444L108.454 32.946ZM99.3827 32.946L92.8692 18.0542V32.9444H91.564V15.1229H93.1938L99.7062 30.4755V15.1229H101.01V32.9444L99.3827 32.946ZM82.6604 32.946L78.8783 17.2098L75.1951 32.9444H73.793L78.1269 15.1229H79.9552L84.2886 32.9444L82.6604 32.946ZM60.6262 32.946L59.4003 31.8919V15.1229H60.9795V31.7217H66.5176V32.9455L60.6262 32.946Z" fill="#0A1D2E"/>
</svg>
