<svg width="136" height="34" viewBox="0 0 136 34" fill="none" xmlns="http://www.w3.org/2000/svg">
<path d="M97.8405 14.6197V17.7255H95.8937V19.7623H97.8405V26.6829C97.8405 29.046 98.9095 29.9912 101.599 29.9912C102.072 29.9912 102.522 29.935 102.916 29.8675V27.8532C102.578 27.8869 102.364 27.9095 101.993 27.9095C100.789 27.9095 100.26 27.3468 100.26 26.064V19.7623H102.916V17.7255H100.26V14.6197H97.8405Z" fill="#29394A"/>
<path d="M109.767 30.16C113.345 30.16 115.54 27.7632 115.54 23.7909C115.54 19.8411 113.334 17.433 109.767 17.433C106.188 17.433 103.983 19.8411 103.983 23.7909C103.983 27.7632 106.177 30.16 109.767 30.16ZM109.767 28.0107C107.662 28.0107 106.481 26.4691 106.481 23.7909C106.481 21.1352 107.662 19.5823 109.767 19.5823C111.86 19.5823 113.053 21.1352 113.053 23.7909C113.053 26.4578 111.86 28.0107 109.767 28.0107Z" fill="#29394A"/>
<path d="M117.417 29.9237H119.836V22.6881C119.836 20.9664 121.13 19.8073 122.965 19.8073C123.392 19.8073 124.112 19.8861 124.315 19.9536V17.568C124.056 17.5005 123.595 17.4667 123.235 17.4667C121.637 17.4667 120.275 18.3444 119.926 19.5485H119.746V17.6693H117.417V29.9237Z" fill="#29394A"/>
<path d="M130.322 19.4923C132.112 19.4923 133.282 20.7413 133.338 22.6656H127.149C127.284 20.7526 128.533 19.4923 130.322 19.4923ZM133.327 26.6154C132.877 27.5719 131.875 28.1008 130.412 28.1008C128.477 28.1008 127.228 26.7391 127.149 24.5898V24.4548H135.802V23.6108C135.802 19.7623 133.743 17.433 130.334 17.433C126.879 17.433 124.685 19.9199 124.685 23.8359C124.685 27.7519 126.834 30.16 130.345 30.16C133.147 30.16 135.105 28.8097 135.656 26.6154H133.327Z" fill="#29394A"/>
<path d="M81.9745 25.3984C82.1611 28.4075 84.6687 30.3319 88.401 30.3319C92.3899 30.3319 94.8858 28.3142 94.8858 25.0951C94.8858 22.5642 93.4629 21.1646 90.0106 20.3598L88.1561 19.9049C85.9634 19.3917 85.077 18.7036 85.077 17.5023C85.077 15.986 86.4532 14.9946 88.5176 14.9946C90.4771 14.9946 91.83 15.9627 92.075 17.5139H94.6176C94.466 14.6797 91.97 12.6853 88.5526 12.6853C84.8787 12.6853 82.4294 14.6797 82.4294 17.6772C82.4294 20.1498 83.8173 21.6194 86.8614 22.3309L89.0308 22.8557C91.2585 23.3806 92.2382 24.1504 92.2382 25.4333C92.2382 26.9262 90.6987 28.0109 88.5993 28.0109C86.3483 28.0109 84.7854 26.9962 84.5638 25.3984H81.9745Z" fill="#29394A"/>
<path d="M56.9122 17.4667C55.2467 17.4667 53.8064 18.2994 53.0637 19.6948H52.8836V17.6693H50.5543V33.9973H52.9736V28.067H53.1649C53.8064 29.3611 55.1905 30.1263 56.9347 30.1263C60.0292 30.1263 61.9985 27.6844 61.9985 23.7909C61.9985 19.8974 60.0292 17.4667 56.9122 17.4667ZM56.2257 27.9545C54.2002 27.9545 52.9286 26.3565 52.9286 23.8021C52.9286 21.2365 54.2002 19.6385 56.237 19.6385C58.285 19.6385 59.5116 21.2027 59.5116 23.7909C59.5116 26.3903 58.285 27.9545 56.2257 27.9545Z" fill="#29394A"/>
<path d="M70.4643 17.4667C68.7989 17.4667 67.3585 18.2994 66.6158 19.6948H66.4358V17.6693H64.1064V33.9973H66.5258V28.067H66.7171C67.3585 29.3611 68.7426 30.1263 70.4868 30.1263C73.5814 30.1263 75.5506 27.6844 75.5506 23.7909C75.5506 19.8974 73.5814 17.4667 70.4643 17.4667ZM69.7779 27.9545C67.7524 27.9545 66.4808 26.3565 66.4808 23.8021C66.4808 21.2365 67.7524 19.6385 69.7891 19.6385C71.8372 19.6385 73.0637 21.2027 73.0637 23.7909C73.0637 26.3903 71.8372 27.9545 69.7779 27.9545Z" fill="#29394A"/>
<path d="M46.2135 29.9237H48.9893L42.9127 13.0935H40.1019L34.0253 29.9237H36.7078L38.2591 25.4567H44.6739L46.2135 29.9237ZM41.3732 16.1493H41.5715L44.0091 23.264H38.9239L41.3732 16.1493Z" fill="#29394A"/>
<path d="M35.6503 0.39948V8.51848H38.5817C41.001 8.51848 42.402 7.02746 42.402 4.43366C42.402 1.87924 40.9898 0.39948 38.5817 0.39948H35.6503ZM36.9106 1.54728H38.441C40.1233 1.54728 41.1192 2.61631 41.1192 4.45054C41.1192 6.3129 40.1402 7.37068 38.441 7.37068H36.9106V1.54728Z" fill="#29394A"/>
<path d="M46.6928 8.63663C48.482 8.63663 49.5792 7.4382 49.5792 5.45205C49.5792 3.47716 48.4764 2.27309 46.6928 2.27309C44.9036 2.27309 43.8008 3.47716 43.8008 5.45205C43.8008 7.4382 44.8979 8.63663 46.6928 8.63663ZM46.6928 7.56198C45.6406 7.56198 45.0499 6.79115 45.0499 5.45205C45.0499 4.1242 45.6406 3.34775 46.6928 3.34775C47.7393 3.34775 48.3357 4.1242 48.3357 5.45205C48.3357 6.78553 47.7393 7.56198 46.6928 7.56198Z" fill="#29394A"/>
<path d="M58.9225 2.39125H57.7128L56.6213 7.06685H56.5256L55.2653 2.39125H54.1062L52.8459 7.06685H52.7559L51.6587 2.39125H50.4321L52.1201 8.51848H53.3635L54.6239 4.00605H54.7195L55.9855 8.51848H57.2402L58.9225 2.39125Z" fill="#29394A"/>
<path d="M60.3156 8.51848H61.5253V4.93442C61.5253 3.97792 62.0936 3.38151 62.9882 3.38151C63.8828 3.38151 64.3104 3.87101 64.3104 4.85565V8.51848H65.5201V4.55182C65.5201 3.09456 64.7661 2.27309 63.3989 2.27309C62.4762 2.27309 61.8685 2.68383 61.5703 3.36463H61.4803V2.39125H60.3156V8.51848Z" fill="#29394A"/>
<path d="M67.4252 8.51848H68.6349V0H67.4252V8.51848Z" fill="#29394A"/>
<path d="M73.1845 8.63663C74.9737 8.63663 76.0709 7.4382 76.0709 5.45205C76.0709 3.47716 74.9681 2.27309 73.1845 2.27309C71.3953 2.27309 70.2925 3.47716 70.2925 5.45205C70.2925 7.4382 71.3896 8.63663 73.1845 8.63663ZM73.1845 7.56198C72.1323 7.56198 71.5415 6.79115 71.5415 5.45205C71.5415 4.1242 72.1323 3.34775 73.1845 3.34775C74.231 3.34775 74.8274 4.1242 74.8274 5.45205C74.8274 6.78553 74.231 7.56198 73.1845 7.56198Z" fill="#29394A"/>
<path d="M79.6752 7.60136C79.0169 7.60136 78.5386 7.28066 78.5386 6.72926C78.5386 6.18912 78.9212 5.90217 79.7652 5.8459L81.2618 5.75025V6.26226C81.2618 7.02184 80.5867 7.60136 79.6752 7.60136ZM79.3657 8.61976C80.1703 8.61976 80.8398 8.27091 81.2056 7.65763H81.3012V8.51848H82.4659V4.33238C82.4659 3.0383 81.5994 2.27309 80.0634 2.27309C78.6737 2.27309 77.6834 2.94827 77.5596 4.00042H78.7299C78.865 3.56718 79.332 3.31962 80.0071 3.31962C80.8342 3.31962 81.2618 3.68534 81.2618 4.33238V4.86127L79.602 4.95692C78.1448 5.04695 77.3233 5.68274 77.3233 6.78553C77.3233 7.90519 78.1841 8.61976 79.3657 8.61976Z" fill="#29394A"/>
<path d="M86.571 8.61976C87.4149 8.61976 88.1295 8.22028 88.4952 7.55073H88.5909V8.51848H89.7499V0H88.5402V3.36463H88.4502C88.1183 2.68945 87.4093 2.28997 86.571 2.28997C85.0237 2.28997 84.0278 3.51655 84.0278 5.45205C84.0278 7.39318 85.0124 8.61976 86.571 8.61976ZM86.9142 3.37588C87.9269 3.37588 88.5627 4.18047 88.5627 5.45768C88.5627 6.74051 87.9326 7.53385 86.9142 7.53385C85.8902 7.53385 85.2769 6.75177 85.2769 5.45205C85.2769 4.16359 85.8958 3.37588 86.9142 3.37588Z" fill="#29394A"/>
<path d="M97.5944 8.63663C99.3836 8.63663 100.481 7.4382 100.481 5.45205C100.481 3.47716 99.3779 2.27309 97.5944 2.27309C95.8051 2.27309 94.7024 3.47716 94.7024 5.45205C94.7024 7.4382 95.7995 8.63663 97.5944 8.63663ZM97.5944 7.56198C96.5422 7.56198 95.9514 6.79115 95.9514 5.45205C95.9514 4.1242 96.5422 3.34775 97.5944 3.34775C98.6409 3.34775 99.2373 4.1242 99.2373 5.45205C99.2373 6.78553 98.6409 7.56198 97.5944 7.56198Z" fill="#29394A"/>
<path d="M102.082 8.51848H103.292V4.93442C103.292 3.97792 103.86 3.38151 104.755 3.38151C105.649 3.38151 106.077 3.87101 106.077 4.85565V8.51848H107.287V4.55182C107.287 3.09456 106.533 2.27309 105.165 2.27309C104.243 2.27309 103.635 2.68383 103.337 3.36463H103.247V2.39125H102.082V8.51848Z" fill="#29394A"/>
<path d="M112.858 0.866477V2.41938H111.884V3.43777H112.858V6.89806C112.858 8.07961 113.392 8.55224 114.737 8.55224C114.973 8.55224 115.198 8.52411 115.395 8.49035V7.48321C115.227 7.50009 115.12 7.51134 114.934 7.51134C114.332 7.51134 114.068 7.23002 114.068 6.5886V3.43777H115.395V2.41938H114.068V0.866477H112.858Z" fill="#29394A"/>
<path d="M117.019 8.51848H118.229V4.94004C118.229 4.01167 118.78 3.38714 119.771 3.38714C120.626 3.38714 121.082 3.88227 121.082 4.86127V8.51848H122.291V4.56307C122.291 3.10581 121.487 2.27872 120.181 2.27872C119.259 2.27872 118.611 2.68945 118.313 3.37588H118.218V0H117.019V8.51848Z" fill="#29394A"/>
<path d="M126.655 3.30274C127.55 3.30274 128.135 3.92728 128.163 4.8894H125.068C125.136 3.9329 125.76 3.30274 126.655 3.30274ZM128.157 6.8643C127.932 7.34255 127.432 7.60699 126.7 7.60699C125.732 7.60699 125.108 6.92619 125.068 5.85153V5.78401H129.395V5.36203C129.395 3.43777 128.366 2.27309 126.661 2.27309C124.933 2.27309 123.836 3.51655 123.836 5.47456C123.836 7.43257 124.911 8.63663 126.666 8.63663C128.067 8.63663 129.046 7.96146 129.322 6.8643H128.157Z" fill="#29394A"/>
<path d="M20.8979 16.1113C20.9272 13.8324 22.151 11.6761 24.0925 10.4825C22.8677 8.7333 20.8163 7.62424 18.6819 7.55746C16.4054 7.31852 14.1985 8.91966 13.0385 8.91966C11.856 8.91966 10.0699 7.58119 8.14662 7.62076C5.63968 7.70175 3.30258 9.12706 2.08291 11.3188C-0.538916 15.8581 1.41673 22.5293 3.92822 26.1985C5.18477 27.9952 6.65332 30.0022 8.57488 29.931C10.4552 29.853 11.1575 28.732 13.4273 28.732C15.676 28.732 16.3349 29.931 18.2954 29.8858C20.3131 29.853 21.5844 28.0811 22.7969 26.2673C23.6997 24.9871 24.3944 23.5722 24.8553 22.075C22.4841 21.0721 20.9006 18.6858 20.8979 16.1113Z" fill="#29394A"/>
<path d="M17.1947 5.14441C18.2948 3.82372 18.8368 2.12621 18.7056 0.412354C17.0248 0.588887 15.4722 1.39219 14.3572 2.6622C13.2669 3.90307 12.6995 5.57072 12.8067 7.21907C14.4881 7.23638 16.1411 6.45485 17.1947 5.14441Z" fill="#29394A"/>
</svg>
