<svg width="315" height="399" viewBox="0 0 315 399" fill="none" xmlns="http://www.w3.org/2000/svg">
<path fill-rule="evenodd" clip-rule="evenodd" d="M15.7642 43.4122C12.6518 43.4122 9.90315 42.7856 7.51831 41.5326C5.13347 40.2795 3.2741 38.5414 1.94021 36.3183C0.646736 34.0547 0 31.4475 0 28.4968V14.9153C0 11.9646 0.646736 9.35746 1.94021 7.09388C3.2741 4.8303 5.13347 3.0922 7.51831 1.87957C9.90315 0.626521 12.6518 0 15.7642 0C18.8362 0 21.5444 0.606315 23.8888 1.81894C26.2737 3.03158 28.1128 4.68884 29.4063 6.79073C30.7402 8.8522 31.4071 11.1562 31.4071 13.7027V14.1271C31.4071 14.3292 31.3263 14.5111 31.1646 14.6728C31.0433 14.7941 30.8817 14.8547 30.6796 14.8547H23.5857C23.3836 14.8547 23.2017 14.7941 23.04 14.6728C22.9187 14.5111 22.8581 14.3292 22.8581 14.1271V13.9452C22.8581 12.0859 22.2113 10.5297 20.9179 9.27661C19.6244 7.98314 17.9065 7.33641 15.7642 7.33641C13.5815 7.33641 11.8231 8.02357 10.4893 9.39788C9.19578 10.7318 8.54904 12.4901 8.54904 14.6728V28.7393C8.54904 30.9221 9.25641 32.7006 10.6711 34.0749C12.0859 35.4088 13.8846 36.0757 16.0674 36.0757C18.1692 36.0757 19.8467 35.5301 21.0998 34.4387C22.3528 33.3069 22.9793 31.7507 22.9793 29.7701V27.0416C22.9793 26.8395 22.8783 26.7385 22.6762 26.7385H15.8855C15.6834 26.7385 15.5015 26.6779 15.3398 26.5566C15.2185 26.3949 15.1579 26.213 15.1579 26.0109V20.4328C15.1579 20.2307 15.2185 20.069 15.3398 19.9478C15.5015 19.7861 15.6834 19.7052 15.8855 19.7052H30.6796C30.8817 19.7052 31.0433 19.7861 31.1646 19.9478C31.3263 20.069 31.4071 20.2307 31.4071 20.4328V28.4362C31.4071 31.5082 30.7604 34.176 29.4669 36.4395C28.1734 38.7031 26.3343 40.4412 23.9495 41.6538C21.605 42.8261 18.8766 43.4122 15.7642 43.4122ZM66.2281 7.09388C66.2281 7.29598 66.1472 7.47788 65.9856 7.63957C65.8643 7.76083 65.7026 7.82146 65.5005 7.82146H45.6134C45.4113 7.82146 45.3102 7.92251 45.3102 8.12462V17.5225C45.3102 17.7246 45.4113 17.8257 45.6134 17.8257H58.6492C58.8513 17.8257 59.0129 17.9065 59.1342 18.0682C59.2959 18.1894 59.3767 18.3511 59.3767 18.5532V24.4345C59.3767 24.6366 59.2959 24.8185 59.1342 24.9802C59.0129 25.1014 58.8513 25.1621 58.6492 25.1621H45.6134C45.4113 25.1621 45.3102 25.2631 45.3102 25.4652V35.2875C45.3102 35.4896 45.4113 35.5907 45.6134 35.5907H65.5005C65.7026 35.5907 65.8643 35.6715 65.9856 35.8332C66.1472 35.9545 66.2281 36.1162 66.2281 36.3183V42.1995C66.2281 42.4016 66.1472 42.5835 65.9856 42.7452C65.8643 42.8665 65.7026 42.9271 65.5005 42.9271H37.4888C37.2866 42.9271 37.1048 42.8665 36.9431 42.7452C36.8218 42.5835 36.7612 42.4016 36.7612 42.1995V1.21263C36.7612 1.01052 36.8218 0.848833 36.9431 0.727569C37.1048 0.565884 37.2866 0.485046 37.4888 0.485046H65.5005C65.7026 0.485046 65.8643 0.565884 65.9856 0.727569C66.1472 0.848833 66.2281 1.01052 66.2281 1.21263V7.09388ZM100.726 0.727569C100.605 0.565884 100.444 0.485046 100.241 0.485046H69.6831C69.481 0.485046 69.2991 0.565884 69.1375 0.727569C69.0162 0.848833 68.9556 1.01052 68.9556 1.21263V7.15451C68.9556 7.35662 69.0162 7.53851 69.1375 7.70019C69.2991 7.82146 69.481 7.88209 69.6831 7.88209H80.233C80.4351 7.88209 80.5362 7.98315 80.5362 8.18525V42.1995C80.5362 42.4016 80.5968 42.5835 80.7181 42.7452C80.8798 42.8665 81.0616 42.9271 81.2638 42.9271H88.3576C88.5598 42.9271 88.7214 42.8665 88.8427 42.7452C89.0044 42.5835 89.0852 42.4016 89.0852 42.1995V8.18525C89.0852 7.98315 89.1863 7.88209 89.3884 7.88209H100.241C100.444 7.88209 100.605 7.82146 100.726 7.70019C100.888 7.53851 100.969 7.35662 100.969 7.15451V1.21263C100.969 1.01052 100.888 0.848833 100.726 0.727569ZM143.421 0.970099C143.623 0.64673 143.906 0.485046 144.269 0.485046H151.363C151.565 0.485046 151.727 0.565884 151.848 0.727569C152.01 0.848833 152.091 1.01052 152.091 1.21263V42.1995C152.091 42.4016 152.01 42.5835 151.848 42.7452C151.727 42.8665 151.565 42.9271 151.363 42.9271H144.269C144.067 42.9271 143.885 42.8665 143.724 42.7452C143.602 42.5835 143.542 42.4016 143.542 42.1995V15.461C143.542 15.2993 143.501 15.2185 143.421 15.2185C143.34 15.2185 143.259 15.2791 143.178 15.4004L136.751 25.4652C136.549 25.7886 136.266 25.9503 135.902 25.9503H132.325C131.961 25.9503 131.678 25.7886 131.476 25.4652L125.049 15.4004C124.968 15.2791 124.888 15.2387 124.807 15.2791C124.726 15.2791 124.685 15.36 124.685 15.5217V42.1995C124.685 42.4016 124.605 42.5835 124.443 42.7452C124.322 42.8665 124.16 42.9271 123.958 42.9271H116.864C116.662 42.9271 116.48 42.8665 116.318 42.7452C116.197 42.5835 116.136 42.4016 116.136 42.1995V1.21263C116.136 1.01052 116.197 0.848833 116.318 0.727569C116.48 0.565884 116.662 0.485046 116.864 0.485046H123.958C124.322 0.485046 124.605 0.64673 124.807 0.970099L133.901 15.0972C134.023 15.3398 134.144 15.3398 134.265 15.0972L143.421 0.970099ZM164.996 41.6538C167.421 42.9473 170.21 43.5941 173.363 43.5941C176.556 43.5941 179.345 42.9675 181.73 41.7145C184.155 40.421 186.035 38.6021 187.369 36.2576C188.703 33.9132 189.37 31.2252 189.37 28.1936V15.2185C189.37 12.2274 188.703 9.57977 187.369 7.27577C186.035 4.97178 184.155 3.19325 181.73 1.9402C179.345 0.646728 176.556 0 173.363 0C170.21 0 167.421 0.646728 164.996 1.9402C162.611 3.19325 160.752 4.97178 159.418 7.27577C158.084 9.57977 157.417 12.2274 157.417 15.2185V28.1936C157.417 31.2252 158.084 33.9132 159.418 36.2576C160.752 38.5616 162.611 40.3604 164.996 41.6538ZM178.759 34.1355C177.385 35.5503 175.586 36.2576 173.363 36.2576C171.14 36.2576 169.341 35.5503 167.967 34.1355C166.633 32.7208 165.966 30.8412 165.966 28.4968V15.1579C165.966 12.8135 166.633 10.9339 167.967 9.51915C169.341 8.06399 171.14 7.33641 173.363 7.33641C175.627 7.33641 177.425 8.06399 178.759 9.51915C180.134 10.9339 180.821 12.8135 180.821 15.1579V28.4968C180.821 30.8412 180.134 32.7208 178.759 34.1355ZM205.1 42.9271C204.696 42.9271 204.433 42.725 204.312 42.3208L191.822 1.33388L191.761 1.09136C191.761 0.687151 191.984 0.485046 192.428 0.485046H200.068C200.513 0.485046 200.795 0.687151 200.917 1.09136L208.981 30.6795C209.021 30.8008 209.082 30.8614 209.163 30.8614C209.243 30.8614 209.304 30.8008 209.345 30.6795L217.287 1.09136C217.409 0.687151 217.691 0.485046 218.136 0.485046H225.594C225.836 0.485046 226.018 0.565884 226.139 0.727569C226.261 0.889253 226.281 1.09136 226.2 1.33388L213.528 42.3208C213.407 42.725 213.144 42.9271 212.74 42.9271H205.1ZM230.509 42.7452C230.671 42.8665 230.853 42.9271 231.055 42.9271H238.149C238.351 42.9271 238.513 42.8665 238.634 42.7452C238.795 42.5835 238.876 42.4016 238.876 42.1995V1.21263C238.876 1.01052 238.795 0.848833 238.634 0.727569C238.513 0.565884 238.351 0.485046 238.149 0.485046H231.055C230.853 0.485046 230.671 0.565884 230.509 0.727569C230.388 0.848833 230.327 1.01052 230.327 1.21263V42.1995C230.327 42.4016 230.388 42.5835 230.509 42.7452ZM269.416 1.21263C269.416 1.01052 269.477 0.848833 269.598 0.727569C269.76 0.565884 269.942 0.485046 270.144 0.485046H277.238C277.44 0.485046 277.601 0.565884 277.723 0.727569C277.884 0.848833 277.965 1.01052 277.965 1.21263V42.1995C277.965 42.4016 277.884 42.5835 277.723 42.7452C277.601 42.8665 277.44 42.9271 277.238 42.9271H270.386C269.982 42.9271 269.699 42.7654 269.537 42.4421L253.834 16.4918C253.753 16.3705 253.672 16.3301 253.591 16.3705C253.51 16.3705 253.47 16.4513 253.47 16.613L253.591 42.1995C253.591 42.4016 253.51 42.5835 253.349 42.7452C253.228 42.8665 253.066 42.9271 252.864 42.9271H245.77C245.568 42.9271 245.386 42.8665 245.224 42.7452C245.103 42.5835 245.042 42.4016 245.042 42.1995V1.21263C245.042 1.01052 245.103 0.848833 245.224 0.727569C245.386 0.565884 245.568 0.485046 245.77 0.485046H252.621C253.025 0.485046 253.308 0.64673 253.47 0.970099L269.113 26.7991C269.194 26.9204 269.275 26.981 269.356 26.981C269.436 26.9406 269.477 26.8395 269.477 26.6779L269.416 1.21263ZM290.821 41.5326C293.206 42.7856 295.955 43.4122 299.067 43.4122C302.18 43.4122 304.908 42.8261 307.253 41.6538C309.637 40.4412 311.477 38.7031 312.77 36.4395C314.064 34.176 314.71 31.5082 314.71 28.4362V20.4328C314.71 20.2307 314.629 20.069 314.468 19.9478C314.346 19.7861 314.185 19.7052 313.983 19.7052H299.189C298.986 19.7052 298.805 19.7861 298.643 19.9478C298.522 20.069 298.461 20.2307 298.461 20.4328V26.0109C298.461 26.213 298.522 26.3949 298.643 26.5566C298.805 26.6779 298.986 26.7385 299.189 26.7385H305.979C306.181 26.7385 306.283 26.8395 306.283 27.0416V29.7701C306.283 31.7507 305.656 33.3069 304.403 34.4387C303.15 35.5301 301.472 36.0757 299.37 36.0757C297.188 36.0757 295.389 35.4088 293.974 34.0749C292.56 32.7006 291.852 30.9221 291.852 28.7393V14.6728C291.852 12.4901 292.499 10.7318 293.792 9.39788C295.126 8.02357 296.885 7.33641 299.067 7.33641C301.21 7.33641 302.928 7.98314 304.221 9.27661C305.514 10.5297 306.161 12.0859 306.161 13.9452V14.1271C306.161 14.3292 306.222 14.5111 306.343 14.6728C306.505 14.7941 306.687 14.8547 306.889 14.8547H313.983C314.185 14.8547 314.346 14.7941 314.468 14.6728C314.629 14.5111 314.71 14.3292 314.71 14.1271V13.7027C314.71 11.1562 314.043 8.8522 312.709 6.79073C311.416 4.68884 309.577 3.03158 307.192 1.81894C304.848 0.606315 302.139 0 299.067 0C295.955 0 293.206 0.626521 290.821 1.87957C288.437 3.0922 286.577 4.8303 285.243 7.09388C283.95 9.35746 283.303 11.9646 283.303 14.9153V28.4968C283.303 31.4475 283.95 34.0547 285.243 36.3183C286.577 38.5414 288.437 40.2795 290.821 41.5326ZM15.7643 94.0505C12.6519 94.0505 9.90329 93.424 7.51845 92.1709C5.13361 90.9179 3.27424 89.1798 1.94035 86.9566C0.646878 84.6931 0.000142303 82.0859 0.000142303 79.1352V65.5537C0.000142303 62.603 0.646878 59.9958 1.94035 57.7322C3.27424 55.4687 5.13361 53.7306 7.51845 52.5179C9.90329 51.2649 12.6519 50.6384 15.7643 50.6384C18.8363 50.6384 21.5445 51.2447 23.889 52.4573C26.2738 53.6699 28.113 55.3272 29.4064 57.4291C30.7403 59.4906 31.4073 61.7946 31.4073 64.3411V64.7655C31.4073 64.9676 31.3264 65.1495 31.1647 65.3112C31.0435 65.4324 30.8818 65.4931 30.6797 65.4931H23.5858C23.3837 65.4931 23.2018 65.4324 23.0401 65.3112C22.9189 65.1495 22.8582 64.9676 22.8582 64.7655V64.5836C22.8582 62.7242 22.2115 61.168 20.918 59.915C19.6245 58.6215 17.9067 57.9748 15.7643 57.9748C13.5816 57.9748 11.8233 58.6619 10.4894 60.0362C9.19592 61.3701 8.54919 63.1284 8.54919 65.3112V79.3777C8.54919 81.5604 9.25655 83.339 10.6713 84.7133C12.086 86.0472 13.8848 86.7141 16.0675 86.7141C18.1694 86.7141 19.8469 86.1684 21.0999 85.0771C22.353 83.9453 22.9795 82.3891 22.9795 80.4084V77.68C22.9795 77.4779 22.8784 77.3769 22.6763 77.3769H15.8856C15.6835 77.3769 15.5016 77.3162 15.3399 77.195C15.2187 77.0333 15.158 76.8514 15.158 76.6493V71.0712C15.158 70.8691 15.2187 70.7074 15.3399 70.5861C15.5016 70.4244 15.6835 70.3436 15.8856 70.3436H30.6797C30.8818 70.3436 31.0435 70.4244 31.1647 70.5861C31.3264 70.7074 31.4073 70.8691 31.4073 71.0712V79.0745C31.4073 82.1465 30.7605 84.8143 29.4671 87.0779C28.1736 89.3415 26.3344 91.0796 23.9496 92.2922C21.6052 93.4644 18.8768 94.0505 15.7643 94.0505ZM66.2282 57.7322C66.2282 57.9343 66.1474 58.1162 65.9857 58.2779C65.8644 58.3992 65.7028 58.4598 65.5007 58.4598H45.6135C45.4114 58.4598 45.3104 58.5609 45.3104 58.763V68.1609C45.3104 68.363 45.4114 68.464 45.6135 68.464H58.6493C58.8514 68.464 59.0131 68.5449 59.1343 68.7065C59.296 68.8278 59.3769 68.9895 59.3769 69.1916V75.0729C59.3769 75.275 59.296 75.4569 59.1343 75.6185C59.0131 75.7398 58.8514 75.8004 58.6493 75.8004H45.6135C45.4114 75.8004 45.3104 75.9015 45.3104 76.1036V85.9259C45.3104 86.128 45.4114 86.2291 45.6135 86.2291H65.5007C65.7028 86.2291 65.8644 86.3099 65.9857 86.4716C66.1474 86.5928 66.2282 86.7545 66.2282 86.9566V92.8379C66.2282 93.04 66.1474 93.2219 65.9857 93.3836C65.8644 93.5048 65.7028 93.5655 65.5007 93.5655H37.4889C37.2868 93.5655 37.1049 93.5048 36.9432 93.3836C36.8219 93.2219 36.7613 93.04 36.7613 92.8379V51.851C36.7613 51.6489 36.8219 51.4872 36.9432 51.3659C37.1049 51.2042 37.2868 51.1234 37.4889 51.1234H65.5007C65.7028 51.1234 65.8644 51.2042 65.9857 51.3659C66.1474 51.4872 66.2282 51.6489 66.2282 51.851V57.7322ZM100.727 51.3659C100.605 51.2042 100.444 51.1234 100.242 51.1234H69.6833C69.4812 51.1234 69.2993 51.2042 69.1376 51.3659C69.0163 51.4872 68.9557 51.6489 68.9557 51.851V57.7929C68.9557 57.995 69.0163 58.1769 69.1376 58.3386C69.2993 58.4598 69.4812 58.5205 69.6833 58.5205H80.2332C80.4353 58.5205 80.5363 58.6215 80.5363 58.8236V92.8379C80.5363 93.04 80.597 93.2219 80.7182 93.3836C80.8799 93.5048 81.0618 93.5655 81.2639 93.5655H88.3578C88.5599 93.5655 88.7216 93.5048 88.8428 93.3836C89.0045 93.2219 89.0854 93.04 89.0854 92.8379V58.8236C89.0854 58.6215 89.1864 58.5205 89.3885 58.5205H100.242C100.444 58.5205 100.605 58.4598 100.727 58.3386C100.888 58.1769 100.969 57.995 100.969 57.7929V51.851C100.969 51.6489 100.888 51.4872 100.727 51.3659ZM143.421 51.6085C143.623 51.2851 143.906 51.1234 144.27 51.1234H151.363C151.566 51.1234 151.727 51.2042 151.848 51.3659C152.01 51.4872 152.091 51.6489 152.091 51.851V92.8379C152.091 93.04 152.01 93.2219 151.848 93.3836C151.727 93.5048 151.566 93.5655 151.363 93.5655H144.27C144.067 93.5655 143.886 93.5048 143.724 93.3836C143.603 93.2219 143.542 93.04 143.542 92.8379V66.0994C143.542 65.9377 143.502 65.8569 143.421 65.8569C143.34 65.8569 143.259 65.9175 143.178 66.0388L136.751 76.1036C136.549 76.427 136.266 76.5887 135.902 76.5887H132.325C131.961 76.5887 131.678 76.427 131.476 76.1036L125.049 66.0388C124.968 65.9175 124.888 65.8771 124.807 65.9175C124.726 65.9175 124.686 65.9983 124.686 66.16V92.8379C124.686 93.04 124.605 93.2219 124.443 93.3836C124.322 93.5048 124.16 93.5655 123.958 93.5655H116.864C116.662 93.5655 116.48 93.5048 116.318 93.3836C116.197 93.2219 116.136 93.04 116.136 92.8379V51.851C116.136 51.6489 116.197 51.4872 116.318 51.3659C116.48 51.2042 116.662 51.1234 116.864 51.1234H123.958C124.322 51.1234 124.605 51.2851 124.807 51.6085L133.902 65.7356C134.023 65.9781 134.144 65.9781 134.265 65.7356L143.421 51.6085ZM164.996 92.2922C167.421 93.5857 170.21 94.2324 173.363 94.2324C176.556 94.2324 179.345 93.6059 181.73 92.3528C184.156 91.0594 186.035 89.2404 187.369 86.896C188.703 84.5516 189.37 81.8636 189.37 78.832V65.8569C189.37 62.8657 188.703 60.2181 187.369 57.9141C186.035 55.6101 184.156 53.8316 181.73 52.5786C179.345 51.2851 176.556 50.6384 173.363 50.6384C170.21 50.6384 167.421 51.2851 164.996 52.5786C162.611 53.8316 160.752 55.6101 159.418 57.9141C158.084 60.2181 157.417 62.8657 157.417 65.8569V78.832C157.417 81.8636 158.084 84.5516 159.418 86.896C160.752 89.2 162.611 90.9987 164.996 92.2922ZM178.759 84.7739C177.385 86.1886 175.586 86.896 173.363 86.896C171.14 86.896 169.341 86.1886 167.967 84.7739C166.633 83.3592 165.966 81.4796 165.966 79.1352V65.7962C165.966 63.4518 166.633 61.5722 167.967 60.1575C169.341 58.7024 171.14 57.9748 173.363 57.9748C175.627 57.9748 177.425 58.7024 178.759 60.1575C180.134 61.5722 180.821 63.4518 180.821 65.7962V79.1352C180.821 81.4796 180.134 83.3592 178.759 84.7739ZM205.1 93.5655C204.696 93.5655 204.434 93.3634 204.312 92.9592L191.822 51.9722L191.762 51.7297C191.762 51.3255 191.984 51.1234 192.428 51.1234H200.068C200.513 51.1234 200.796 51.3255 200.917 51.7297L208.981 81.3179C209.021 81.4392 209.082 81.4998 209.163 81.4998C209.244 81.4998 209.304 81.4392 209.345 81.3179L217.287 51.7297C217.409 51.3255 217.692 51.1234 218.136 51.1234H225.594C225.836 51.1234 226.018 51.2042 226.14 51.3659C226.261 51.5276 226.281 51.7297 226.2 51.9722L213.528 92.9592C213.407 93.3634 213.144 93.5655 212.74 93.5655H205.1ZM230.509 93.3836C230.671 93.5048 230.853 93.5655 231.055 93.5655H238.149C238.351 93.5655 238.513 93.5048 238.634 93.3836C238.796 93.2219 238.876 93.04 238.876 92.8379V51.851C238.876 51.6489 238.796 51.4872 238.634 51.3659C238.513 51.2042 238.351 51.1234 238.149 51.1234H231.055C230.853 51.1234 230.671 51.2042 230.509 51.3659C230.388 51.4872 230.327 51.6489 230.327 51.851V92.8379C230.327 93.04 230.388 93.2219 230.509 93.3836ZM269.416 51.851C269.416 51.6489 269.477 51.4872 269.598 51.3659C269.76 51.2042 269.942 51.1234 270.144 51.1234H277.238C277.44 51.1234 277.602 51.2042 277.723 51.3659C277.884 51.4872 277.965 51.6489 277.965 51.851V92.8379C277.965 93.04 277.884 93.2219 277.723 93.3836C277.602 93.5048 277.44 93.5655 277.238 93.5655H270.386C269.982 93.5655 269.699 93.4038 269.538 93.0804L253.834 67.1301C253.753 67.0089 253.672 66.9685 253.591 67.0089C253.511 67.0089 253.47 67.0897 253.47 67.2514L253.591 92.8379C253.591 93.04 253.511 93.2219 253.349 93.3836C253.228 93.5048 253.066 93.5655 252.864 93.5655H245.77C245.568 93.5655 245.386 93.5048 245.224 93.3836C245.103 93.2219 245.042 93.04 245.042 92.8379V51.851C245.042 51.6489 245.103 51.4872 245.224 51.3659C245.386 51.2042 245.568 51.1234 245.77 51.1234H252.621C253.026 51.1234 253.309 51.2851 253.47 51.6085L269.113 77.4375C269.194 77.5587 269.275 77.6194 269.356 77.6194C269.436 77.579 269.477 77.4779 269.477 77.3162L269.416 51.851ZM290.822 92.1709C293.206 93.424 295.955 94.0505 299.067 94.0505C302.18 94.0505 304.908 93.4644 307.253 92.2922C309.638 91.0796 311.477 89.3415 312.77 87.0779C314.064 84.8143 314.71 82.1465 314.71 79.0745V71.0712C314.71 70.8691 314.63 70.7074 314.468 70.5861C314.347 70.4244 314.185 70.3436 313.983 70.3436H299.189C298.987 70.3436 298.805 70.4244 298.643 70.5861C298.522 70.7074 298.461 70.8691 298.461 71.0712V76.6493C298.461 76.8514 298.522 77.0333 298.643 77.195C298.805 77.3162 298.987 77.3769 299.189 77.3769H305.979C306.182 77.3769 306.283 77.4779 306.283 77.68V80.4084C306.283 82.3891 305.656 83.9453 304.403 85.0771C303.15 86.1684 301.473 86.7141 299.371 86.7141C297.188 86.7141 295.389 86.0472 293.974 84.7133C292.56 83.339 291.852 81.5604 291.852 79.3777V65.3112C291.852 63.1284 292.499 61.3701 293.793 60.0362C295.126 58.6619 296.885 57.9748 299.067 57.9748C301.21 57.9748 302.928 58.6215 304.221 59.915C305.515 61.168 306.161 62.7242 306.161 64.5836V64.7655C306.161 64.9676 306.222 65.1495 306.343 65.3112C306.505 65.4324 306.687 65.4931 306.889 65.4931H313.983C314.185 65.4931 314.347 65.4324 314.468 65.3112C314.63 65.1495 314.71 64.9676 314.71 64.7655V64.3411C314.71 61.7946 314.043 59.4906 312.71 57.4291C311.416 55.3272 309.577 53.6699 307.192 52.4573C304.848 51.2447 302.139 50.6384 299.067 50.6384C295.955 50.6384 293.206 51.2649 290.822 52.5179C288.437 53.7306 286.577 55.4687 285.243 57.7322C283.95 59.9958 283.303 62.603 283.303 65.5537V79.1352C283.303 82.0859 283.95 84.6931 285.243 86.9566C286.577 89.1798 288.437 90.9179 290.822 92.1709ZM7.51845 142.809C9.90329 144.062 12.6519 144.689 15.7643 144.689C18.8768 144.689 21.6052 144.103 23.9496 142.931C26.3344 141.718 28.1736 139.98 29.4671 137.716C30.7605 135.453 31.4073 132.785 31.4073 129.713V121.71C31.4073 121.507 31.3264 121.346 31.1647 121.224C31.0435 121.063 30.8818 120.982 30.6797 120.982H15.8856C15.6835 120.982 15.5016 121.063 15.3399 121.224C15.2187 121.346 15.158 121.507 15.158 121.71V127.288C15.158 127.49 15.2187 127.672 15.3399 127.833C15.5016 127.955 15.6835 128.015 15.8856 128.015H22.6763C22.8784 128.015 22.9795 128.116 22.9795 128.318V131.047C22.9795 133.027 22.353 134.584 21.0999 135.715C19.8469 136.807 18.1694 137.352 16.0675 137.352C13.8848 137.352 12.086 136.686 10.6713 135.352C9.25655 133.977 8.54919 132.199 8.54919 130.016V115.95C8.54919 113.767 9.19592 112.008 10.4894 110.675C11.8233 109.3 13.5816 108.613 15.7643 108.613C17.9067 108.613 19.6245 109.26 20.918 110.553C22.2115 111.806 22.8582 113.363 22.8582 115.222V115.404C22.8582 115.606 22.9189 115.788 23.0401 115.95C23.2018 116.071 23.3837 116.131 23.5858 116.131H30.6797C30.8818 116.131 31.0435 116.071 31.1647 115.95C31.3264 115.788 31.4073 115.606 31.4073 115.404V114.979C31.4073 112.433 30.7403 110.129 29.4064 108.067C28.113 105.966 26.2738 104.308 23.889 103.096C21.5445 101.883 18.8363 101.277 15.7643 101.277C12.6519 101.277 9.90329 101.903 7.51845 103.156C5.13361 104.369 3.27424 106.107 1.94035 108.371C0.646878 110.634 0.000142303 113.241 0.000142303 116.192V129.774C0.000142303 132.724 0.646878 135.331 1.94035 137.595C3.27424 139.818 5.13361 141.556 7.51845 142.809ZM65.9857 108.916C66.1474 108.755 66.2282 108.573 66.2282 108.371V102.489C66.2282 102.287 66.1474 102.126 65.9857 102.004C65.8644 101.843 65.7028 101.762 65.5007 101.762H37.4889C37.2868 101.762 37.1049 101.843 36.9432 102.004C36.8219 102.126 36.7613 102.287 36.7613 102.489V143.476C36.7613 143.678 36.8219 143.86 36.9432 144.022C37.1049 144.143 37.2868 144.204 37.4889 144.204H65.5007C65.7028 144.204 65.8644 144.143 65.9857 144.022C66.1474 143.86 66.2282 143.678 66.2282 143.476V137.595C66.2282 137.393 66.1474 137.231 65.9857 137.11C65.8644 136.948 65.7028 136.867 65.5007 136.867H45.6135C45.4114 136.867 45.3104 136.766 45.3104 136.564V126.742C45.3104 126.54 45.4114 126.439 45.6135 126.439H58.6493C58.8514 126.439 59.0131 126.378 59.1343 126.257C59.296 126.095 59.3769 125.913 59.3769 125.711V119.83C59.3769 119.628 59.296 119.466 59.1343 119.345C59.0131 119.183 58.8514 119.102 58.6493 119.102H45.6135C45.4114 119.102 45.3104 119.001 45.3104 118.799V109.401C45.3104 109.199 45.4114 109.098 45.6135 109.098H65.5007C65.7028 109.098 65.8644 109.038 65.9857 108.916ZM100.242 101.762C100.444 101.762 100.605 101.843 100.727 102.004C100.888 102.126 100.969 102.287 100.969 102.489V108.431C100.969 108.633 100.888 108.815 100.727 108.977C100.605 109.098 100.444 109.159 100.242 109.159H89.3885C89.1864 109.159 89.0854 109.26 89.0854 109.462V143.476C89.0854 143.678 89.0045 143.86 88.8428 144.022C88.7216 144.143 88.5599 144.204 88.3578 144.204H81.2639C81.0618 144.204 80.8799 144.143 80.7182 144.022C80.597 143.86 80.5363 143.678 80.5363 143.476V109.462C80.5363 109.26 80.4353 109.159 80.2332 109.159H69.6833C69.4812 109.159 69.2993 109.098 69.1376 108.977C69.0163 108.815 68.9557 108.633 68.9557 108.431V102.489C68.9557 102.287 69.0163 102.126 69.1376 102.004C69.2993 101.843 69.4812 101.762 69.6833 101.762H100.242ZM144.27 101.762C143.906 101.762 143.623 101.923 143.421 102.247L134.265 116.374C134.144 116.616 134.023 116.616 133.902 116.374L124.807 102.247C124.605 101.923 124.322 101.762 123.958 101.762H116.864C116.662 101.762 116.48 101.843 116.318 102.004C116.197 102.126 116.136 102.287 116.136 102.489V143.476C116.136 143.678 116.197 143.86 116.318 144.022C116.48 144.143 116.662 144.204 116.864 144.204H123.958C124.16 144.204 124.322 144.143 124.443 144.022C124.605 143.86 124.686 143.678 124.686 143.476V116.798C124.686 116.637 124.726 116.556 124.807 116.556C124.888 116.515 124.968 116.556 125.049 116.677L131.476 126.742C131.678 127.065 131.961 127.227 132.325 127.227H135.902C136.266 127.227 136.549 127.065 136.751 126.742L143.178 116.677C143.259 116.556 143.34 116.495 143.421 116.495C143.502 116.495 143.542 116.576 143.542 116.738V143.476C143.542 143.678 143.603 143.86 143.724 144.022C143.886 144.143 144.067 144.204 144.27 144.204H151.363C151.566 144.204 151.727 144.143 151.848 144.022C152.01 143.86 152.091 143.678 152.091 143.476V102.489C152.091 102.287 152.01 102.126 151.848 102.004C151.727 101.843 151.566 101.762 151.363 101.762H144.27ZM173.363 144.871C170.21 144.871 167.421 144.224 164.996 142.931C162.611 141.637 160.752 139.838 159.418 137.534C158.084 135.19 157.417 132.502 157.417 129.47V116.495C157.417 113.504 158.084 110.856 159.418 108.552C160.752 106.249 162.611 104.47 164.996 103.217C167.421 101.923 170.21 101.277 173.363 101.277C176.556 101.277 179.345 101.923 181.73 103.217C184.156 104.47 186.035 106.249 187.369 108.552C188.703 110.856 189.37 113.504 189.37 116.495V129.47C189.37 132.502 188.703 135.19 187.369 137.534C186.035 139.879 184.156 141.698 181.73 142.991C179.345 144.244 176.556 144.871 173.363 144.871ZM173.363 137.534C175.586 137.534 177.385 136.827 178.759 135.412C180.134 133.998 180.821 132.118 180.821 129.774V116.435C180.821 114.09 180.134 112.211 178.759 110.796C177.425 109.341 175.627 108.613 173.363 108.613C171.14 108.613 169.341 109.341 167.967 110.796C166.633 112.211 165.966 114.09 165.966 116.435V129.774C165.966 132.118 166.633 133.998 167.967 135.412C169.341 136.827 171.14 137.534 173.363 137.534ZM204.312 143.598C204.434 144.002 204.696 144.204 205.1 144.204H212.74C213.144 144.204 213.407 144.002 213.528 143.598L226.2 102.611C226.281 102.368 226.261 102.166 226.14 102.004C226.018 101.843 225.836 101.762 225.594 101.762H218.136C217.692 101.762 217.409 101.964 217.287 102.368L209.345 131.956C209.304 132.078 209.244 132.138 209.163 132.138C209.082 132.138 209.021 132.078 208.981 131.956L200.917 102.368C200.796 101.964 200.513 101.762 200.068 101.762H192.428C191.984 101.762 191.762 101.964 191.762 102.368L191.822 102.611L204.312 143.598ZM231.055 144.204C230.853 144.204 230.671 144.143 230.509 144.022C230.388 143.86 230.327 143.678 230.327 143.476V102.489C230.327 102.287 230.388 102.126 230.509 102.004C230.671 101.843 230.853 101.762 231.055 101.762H238.149C238.351 101.762 238.513 101.843 238.634 102.004C238.796 102.126 238.876 102.287 238.876 102.489V143.476C238.876 143.678 238.796 143.86 238.634 144.022C238.513 144.143 238.351 144.204 238.149 144.204H231.055ZM269.598 102.004C269.477 102.126 269.416 102.287 269.416 102.489L269.477 127.955C269.477 128.116 269.436 128.217 269.356 128.258C269.275 128.258 269.194 128.197 269.113 128.076L253.47 102.247C253.309 101.923 253.026 101.762 252.621 101.762H245.77C245.568 101.762 245.386 101.843 245.224 102.004C245.103 102.126 245.042 102.287 245.042 102.489V143.476C245.042 143.678 245.103 143.86 245.224 144.022C245.386 144.143 245.568 144.204 245.77 144.204H252.864C253.066 144.204 253.228 144.143 253.349 144.022C253.511 143.86 253.591 143.678 253.591 143.476L253.47 117.89C253.47 117.728 253.511 117.647 253.591 117.647C253.672 117.607 253.753 117.647 253.834 117.768L269.538 143.719C269.699 144.042 269.982 144.204 270.386 144.204H277.238C277.44 144.204 277.602 144.143 277.723 144.022C277.884 143.86 277.965 143.678 277.965 143.476V102.489C277.965 102.287 277.884 102.126 277.723 102.004C277.602 101.843 277.44 101.762 277.238 101.762H270.144C269.942 101.762 269.76 101.843 269.598 102.004ZM299.067 144.689C295.955 144.689 293.206 144.062 290.822 142.809C288.437 141.556 286.577 139.818 285.243 137.595C283.95 135.331 283.303 132.724 283.303 129.774V116.192C283.303 113.241 283.95 110.634 285.243 108.371C286.577 106.107 288.437 104.369 290.822 103.156C293.206 101.903 295.955 101.277 299.067 101.277C302.139 101.277 304.848 101.883 307.192 103.096C309.577 104.308 311.416 105.966 312.71 108.067C314.043 110.129 314.71 112.433 314.71 114.979V115.404C314.71 115.606 314.63 115.788 314.468 115.95C314.347 116.071 314.185 116.131 313.983 116.131H306.889C306.687 116.131 306.505 116.071 306.343 115.95C306.222 115.788 306.161 115.606 306.161 115.404V115.222C306.161 113.363 305.515 111.806 304.221 110.553C302.928 109.26 301.21 108.613 299.067 108.613C296.885 108.613 295.126 109.3 293.793 110.675C292.499 112.008 291.852 113.767 291.852 115.95V130.016C291.852 132.199 292.56 133.977 293.974 135.352C295.389 136.686 297.188 137.352 299.371 137.352C301.473 137.352 303.15 136.807 304.403 135.715C305.656 134.584 306.283 133.027 306.283 131.047V128.318C306.283 128.116 306.182 128.015 305.979 128.015H299.189C298.987 128.015 298.805 127.955 298.643 127.833C298.522 127.672 298.461 127.49 298.461 127.288V121.71C298.461 121.507 298.522 121.346 298.643 121.224C298.805 121.063 298.987 120.982 299.189 120.982H313.983C314.185 120.982 314.347 121.063 314.468 121.224C314.63 121.346 314.71 121.507 314.71 121.71V129.713C314.71 132.785 314.064 135.453 312.77 137.716C311.477 139.98 309.638 141.718 307.253 142.931C304.908 144.103 302.18 144.689 299.067 144.689ZM15.7643 195.327C12.6519 195.327 9.90329 194.701 7.51845 193.448C5.13361 192.195 3.27424 190.457 1.94035 188.233C0.646878 185.97 0.000142303 183.363 0.000142303 180.412V166.83C0.000142303 163.88 0.646878 161.273 1.94035 159.009C3.27424 156.745 5.13361 155.007 7.51845 153.795C9.90329 152.542 12.6519 151.915 15.7643 151.915C18.8363 151.915 21.5445 152.521 23.889 153.734C26.2738 154.947 28.113 156.604 29.4064 158.706C30.7403 160.767 31.4073 163.071 31.4073 165.618V166.042C31.4073 166.244 31.3264 166.426 31.1647 166.588C31.0435 166.709 30.8818 166.77 30.6797 166.77H23.5858C23.3837 166.77 23.2018 166.709 23.0401 166.588C22.9189 166.426 22.8582 166.244 22.8582 166.042V165.86C22.8582 164.001 22.2115 162.445 20.918 161.192C19.6245 159.898 17.9067 159.251 15.7643 159.251C13.5816 159.251 11.8233 159.939 10.4894 161.313C9.19592 162.647 8.54919 164.405 8.54919 166.588V180.654C8.54919 182.837 9.25655 184.616 10.6713 185.99C12.086 187.324 13.8848 187.991 16.0675 187.991C18.1694 187.991 19.8469 187.445 21.0999 186.354C22.353 185.222 22.9795 183.666 22.9795 181.685V178.957C22.9795 178.755 22.8784 178.654 22.6763 178.654H15.8856C15.6835 178.654 15.5016 178.593 15.3399 178.472C15.2187 178.31 15.158 178.128 15.158 177.926V172.348C15.158 172.146 15.2187 171.984 15.3399 171.863C15.5016 171.701 15.6835 171.62 15.8856 171.62H30.6797C30.8818 171.62 31.0435 171.701 31.1647 171.863C31.3264 171.984 31.4073 172.146 31.4073 172.348V180.351C31.4073 183.423 30.7605 186.091 29.4671 188.355C28.1736 190.618 26.3344 192.356 23.9496 193.569C21.6052 194.741 18.8768 195.327 15.7643 195.327ZM66.2282 159.009C66.2282 159.211 66.1474 159.393 65.9857 159.555C65.8644 159.676 65.7028 159.737 65.5007 159.737H45.6135C45.4114 159.737 45.3104 159.838 45.3104 160.04V169.438C45.3104 169.64 45.4114 169.741 45.6135 169.741H58.6493C58.8514 169.741 59.0131 169.822 59.1343 169.983C59.296 170.105 59.3769 170.266 59.3769 170.468V176.35C59.3769 176.552 59.296 176.734 59.1343 176.895C59.0131 177.017 58.8514 177.077 58.6493 177.077H45.6135C45.4114 177.077 45.3104 177.178 45.3104 177.38V187.203C45.3104 187.405 45.4114 187.506 45.6135 187.506H65.5007C65.7028 187.506 65.8644 187.587 65.9857 187.748C66.1474 187.87 66.2282 188.031 66.2282 188.233V194.115C66.2282 194.317 66.1474 194.499 65.9857 194.66C65.8644 194.782 65.7028 194.842 65.5007 194.842H37.4889C37.2868 194.842 37.1049 194.782 36.9432 194.66C36.8219 194.499 36.7613 194.317 36.7613 194.115V153.128C36.7613 152.926 36.8219 152.764 36.9432 152.643C37.1049 152.481 37.2868 152.4 37.4889 152.4H65.5007C65.7028 152.4 65.8644 152.481 65.9857 152.643C66.1474 152.764 66.2282 152.926 66.2282 153.128V159.009ZM100.727 152.643C100.605 152.481 100.444 152.4 100.242 152.4H69.6833C69.4812 152.4 69.2993 152.481 69.1376 152.643C69.0163 152.764 68.9557 152.926 68.9557 153.128V159.07C68.9557 159.272 69.0163 159.454 69.1376 159.615C69.2993 159.737 69.4812 159.797 69.6833 159.797H80.2332C80.4353 159.797 80.5363 159.898 80.5363 160.1V194.115C80.5363 194.317 80.597 194.499 80.7182 194.66C80.8799 194.782 81.0618 194.842 81.2639 194.842H88.3578C88.5599 194.842 88.7216 194.782 88.8428 194.66C89.0045 194.499 89.0854 194.317 89.0854 194.115V160.1C89.0854 159.898 89.1864 159.797 89.3885 159.797H100.242C100.444 159.797 100.605 159.737 100.727 159.615C100.888 159.454 100.969 159.272 100.969 159.07V153.128C100.969 152.926 100.888 152.764 100.727 152.643ZM143.421 152.885C143.623 152.562 143.906 152.4 144.27 152.4H151.363C151.566 152.4 151.727 152.481 151.848 152.643C152.01 152.764 152.091 152.926 152.091 153.128V194.115C152.091 194.317 152.01 194.499 151.848 194.66C151.727 194.782 151.566 194.842 151.363 194.842H144.27C144.067 194.842 143.886 194.782 143.724 194.66C143.603 194.499 143.542 194.317 143.542 194.115V167.376C143.542 167.214 143.502 167.134 143.421 167.134C143.34 167.134 143.259 167.194 143.178 167.315L136.751 177.38C136.549 177.704 136.266 177.865 135.902 177.865H132.325C131.961 177.865 131.678 177.704 131.476 177.38L125.049 167.315C124.968 167.194 124.888 167.154 124.807 167.194C124.726 167.194 124.686 167.275 124.686 167.437V194.115C124.686 194.317 124.605 194.499 124.443 194.66C124.322 194.782 124.16 194.842 123.958 194.842H116.864C116.662 194.842 116.48 194.782 116.318 194.66C116.197 194.499 116.136 194.317 116.136 194.115V153.128C116.136 152.926 116.197 152.764 116.318 152.643C116.48 152.481 116.662 152.4 116.864 152.4H123.958C124.322 152.4 124.605 152.562 124.807 152.885L133.902 167.012C134.023 167.255 134.144 167.255 134.265 167.012L143.421 152.885ZM164.996 193.569C167.421 194.862 170.21 195.509 173.363 195.509C176.556 195.509 179.345 194.883 181.73 193.63C184.156 192.336 186.035 190.517 187.369 188.173C188.703 185.828 189.37 183.14 189.37 180.109V167.134C189.37 164.142 188.703 161.495 187.369 159.191C186.035 156.887 184.156 155.108 181.73 153.855C179.345 152.562 176.556 151.915 173.363 151.915C170.21 151.915 167.421 152.562 164.996 153.855C162.611 155.108 160.752 156.887 159.418 159.191C158.084 161.495 157.417 164.142 157.417 167.134V180.109C157.417 183.14 158.084 185.828 159.418 188.173C160.752 190.477 162.611 192.275 164.996 193.569ZM178.759 186.051C177.385 187.465 175.586 188.173 173.363 188.173C171.14 188.173 169.341 187.465 167.967 186.051C166.633 184.636 165.966 182.756 165.966 180.412V167.073C165.966 164.729 166.633 162.849 167.967 161.434C169.341 159.979 171.14 159.251 173.363 159.251C175.627 159.251 177.425 159.979 178.759 161.434C180.134 162.849 180.821 164.729 180.821 167.073V180.412C180.821 182.756 180.134 184.636 178.759 186.051ZM205.1 194.842C204.696 194.842 204.434 194.64 204.312 194.236L191.822 153.249L191.762 153.006C191.762 152.602 191.984 152.4 192.428 152.4H200.068C200.513 152.4 200.796 152.602 200.917 153.006L208.981 182.595C209.021 182.716 209.082 182.777 209.163 182.777C209.244 182.777 209.304 182.716 209.345 182.595L217.287 153.006C217.409 152.602 217.692 152.4 218.136 152.4H225.594C225.836 152.4 226.018 152.481 226.14 152.643C226.261 152.804 226.281 153.006 226.2 153.249L213.528 194.236C213.407 194.64 213.144 194.842 212.74 194.842H205.1ZM230.509 194.66C230.671 194.782 230.853 194.842 231.055 194.842H238.149C238.351 194.842 238.513 194.782 238.634 194.66C238.796 194.499 238.876 194.317 238.876 194.115V153.128C238.876 152.926 238.796 152.764 238.634 152.643C238.513 152.481 238.351 152.4 238.149 152.4H231.055C230.853 152.4 230.671 152.481 230.509 152.643C230.388 152.764 230.327 152.926 230.327 153.128V194.115C230.327 194.317 230.388 194.499 230.509 194.66ZM269.416 153.128C269.416 152.926 269.477 152.764 269.598 152.643C269.76 152.481 269.942 152.4 270.144 152.4H277.238C277.44 152.4 277.602 152.481 277.723 152.643C277.884 152.764 277.965 152.926 277.965 153.128V194.115C277.965 194.317 277.884 194.499 277.723 194.66C277.602 194.782 277.44 194.842 277.238 194.842H270.386C269.982 194.842 269.699 194.681 269.538 194.357L253.834 168.407C253.753 168.286 253.672 168.245 253.591 168.286C253.511 168.286 253.47 168.366 253.47 168.528L253.591 194.115C253.591 194.317 253.511 194.499 253.349 194.66C253.228 194.782 253.066 194.842 252.864 194.842H245.77C245.568 194.842 245.386 194.782 245.224 194.66C245.103 194.499 245.042 194.317 245.042 194.115V153.128C245.042 152.926 245.103 152.764 245.224 152.643C245.386 152.481 245.568 152.4 245.77 152.4H252.621C253.026 152.4 253.309 152.562 253.47 152.885L269.113 178.714C269.194 178.835 269.275 178.896 269.356 178.896C269.436 178.856 269.477 178.755 269.477 178.593L269.416 153.128ZM290.822 193.448C293.206 194.701 295.955 195.327 299.067 195.327C302.18 195.327 304.908 194.741 307.253 193.569C309.638 192.356 311.477 190.618 312.77 188.355C314.064 186.091 314.71 183.423 314.71 180.351V172.348C314.71 172.146 314.63 171.984 314.468 171.863C314.347 171.701 314.185 171.62 313.983 171.62H299.189C298.987 171.62 298.805 171.701 298.643 171.863C298.522 171.984 298.461 172.146 298.461 172.348V177.926C298.461 178.128 298.522 178.31 298.643 178.472C298.805 178.593 298.987 178.654 299.189 178.654H305.979C306.182 178.654 306.283 178.755 306.283 178.957V181.685C306.283 183.666 305.656 185.222 304.403 186.354C303.15 187.445 301.473 187.991 299.371 187.991C297.188 187.991 295.389 187.324 293.974 185.99C292.56 184.616 291.852 182.837 291.852 180.654V166.588C291.852 164.405 292.499 162.647 293.793 161.313C295.126 159.939 296.885 159.251 299.067 159.251C301.21 159.251 302.928 159.898 304.221 161.192C305.515 162.445 306.161 164.001 306.161 165.86V166.042C306.161 166.244 306.222 166.426 306.343 166.588C306.505 166.709 306.687 166.77 306.889 166.77H313.983C314.185 166.77 314.347 166.709 314.468 166.588C314.63 166.426 314.71 166.244 314.71 166.042V165.618C314.71 163.071 314.043 160.767 312.71 158.706C311.416 156.604 309.577 154.947 307.192 153.734C304.848 152.521 302.139 151.915 299.067 151.915C295.955 151.915 293.206 152.542 290.822 153.795C288.437 155.007 286.577 156.745 285.243 159.009C283.95 161.273 283.303 163.88 283.303 166.83V180.412C283.303 183.363 283.95 185.97 285.243 188.233C286.577 190.457 288.437 192.195 290.822 193.448ZM7.51845 244.086C9.90329 245.339 12.6519 245.966 15.7643 245.966C18.8768 245.966 21.6052 245.38 23.9496 244.207C26.3344 242.995 28.1736 241.257 29.4671 238.993C30.7605 236.729 31.4073 234.062 31.4073 230.99V222.986C31.4073 222.784 31.3264 222.622 31.1647 222.501C31.0435 222.34 30.8818 222.259 30.6797 222.259H15.8856C15.6835 222.259 15.5016 222.34 15.3399 222.501C15.2187 222.622 15.158 222.784 15.158 222.986V228.564C15.158 228.766 15.2187 228.948 15.3399 229.11C15.5016 229.231 15.6835 229.292 15.8856 229.292H22.6763C22.8784 229.292 22.9795 229.393 22.9795 229.595V232.324C22.9795 234.304 22.353 235.86 21.0999 236.992C19.8469 238.084 18.1694 238.629 16.0675 238.629C13.8848 238.629 12.086 237.962 10.6713 236.628C9.25655 235.254 8.54919 233.476 8.54919 231.293V217.226C8.54919 215.044 9.19592 213.285 10.4894 211.951C11.8233 210.577 13.5816 209.89 15.7643 209.89C17.9067 209.89 19.6245 210.537 20.918 211.83C22.2115 213.083 22.8582 214.639 22.8582 216.499V216.681C22.8582 216.883 22.9189 217.065 23.0401 217.226C23.2018 217.348 23.3837 217.408 23.5858 217.408H30.6797C30.8818 217.408 31.0435 217.348 31.1647 217.226C31.3264 217.065 31.4073 216.883 31.4073 216.681V216.256C31.4073 213.71 30.7403 211.406 29.4064 209.344C28.113 207.242 26.2738 205.585 23.889 204.372C21.5445 203.16 18.8363 202.553 15.7643 202.553C12.6519 202.553 9.90329 203.18 7.51845 204.433C5.13361 205.646 3.27424 207.384 1.94035 209.647C0.646878 211.911 0.000142303 214.518 0.000142303 217.469V231.05C0.000142303 234.001 0.646878 236.608 1.94035 238.872C3.27424 241.095 5.13361 242.833 7.51845 244.086ZM65.9857 210.193C66.1474 210.031 66.2282 209.849 66.2282 209.647V203.766C66.2282 203.564 66.1474 203.402 65.9857 203.281C65.8644 203.119 65.7028 203.038 65.5007 203.038H37.4889C37.2868 203.038 37.1049 203.119 36.9432 203.281C36.8219 203.402 36.7613 203.564 36.7613 203.766V244.753C36.7613 244.955 36.8219 245.137 36.9432 245.299C37.1049 245.42 37.2868 245.481 37.4889 245.481H65.5007C65.7028 245.481 65.8644 245.42 65.9857 245.299C66.1474 245.137 66.2282 244.955 66.2282 244.753V238.872C66.2282 238.67 66.1474 238.508 65.9857 238.387C65.8644 238.225 65.7028 238.144 65.5007 238.144H45.6135C45.4114 238.144 45.3104 238.043 45.3104 237.841V228.019C45.3104 227.817 45.4114 227.716 45.6135 227.716H58.6493C58.8514 227.716 59.0131 227.655 59.1343 227.534C59.296 227.372 59.3769 227.19 59.3769 226.988V221.107C59.3769 220.905 59.296 220.743 59.1343 220.622C59.0131 220.46 58.8514 220.379 58.6493 220.379H45.6135C45.4114 220.379 45.3104 220.278 45.3104 220.076V210.678C45.3104 210.476 45.4114 210.375 45.6135 210.375H65.5007C65.7028 210.375 65.8644 210.314 65.9857 210.193ZM100.242 203.038C100.444 203.038 100.605 203.119 100.727 203.281C100.888 203.402 100.969 203.564 100.969 203.766V209.708C100.969 209.91 100.888 210.092 100.727 210.254C100.605 210.375 100.444 210.436 100.242 210.436H89.3885C89.1864 210.436 89.0854 210.537 89.0854 210.739V244.753C89.0854 244.955 89.0045 245.137 88.8428 245.299C88.7216 245.42 88.5599 245.481 88.3578 245.481H81.2639C81.0618 245.481 80.8799 245.42 80.7182 245.299C80.597 245.137 80.5363 244.955 80.5363 244.753V210.739C80.5363 210.537 80.4353 210.436 80.2332 210.436H69.6833C69.4812 210.436 69.2993 210.375 69.1376 210.254C69.0163 210.092 68.9557 209.91 68.9557 209.708V203.766C68.9557 203.564 69.0163 203.402 69.1376 203.281C69.2993 203.119 69.4812 203.038 69.6833 203.038H100.242ZM144.27 203.038C143.906 203.038 143.623 203.2 143.421 203.524L134.265 217.651C134.144 217.893 134.023 217.893 133.902 217.651L124.807 203.524C124.605 203.2 124.322 203.038 123.958 203.038H116.864C116.662 203.038 116.48 203.119 116.318 203.281C116.197 203.402 116.136 203.564 116.136 203.766V244.753C116.136 244.955 116.197 245.137 116.318 245.299C116.48 245.42 116.662 245.481 116.864 245.481H123.958C124.16 245.481 124.322 245.42 124.443 245.299C124.605 245.137 124.686 244.955 124.686 244.753V218.075C124.686 217.913 124.726 217.833 124.807 217.833C124.888 217.792 124.968 217.833 125.049 217.954L131.476 228.019C131.678 228.342 131.961 228.504 132.325 228.504H135.902C136.266 228.504 136.549 228.342 136.751 228.019L143.178 217.954C143.259 217.833 143.34 217.772 143.421 217.772C143.502 217.772 143.542 217.853 143.542 218.014V244.753C143.542 244.955 143.603 245.137 143.724 245.299C143.886 245.42 144.067 245.481 144.27 245.481H151.363C151.566 245.481 151.727 245.42 151.848 245.299C152.01 245.137 152.091 244.955 152.091 244.753V203.766C152.091 203.564 152.01 203.402 151.848 203.281C151.727 203.119 151.566 203.038 151.363 203.038H144.27ZM173.363 246.148C170.21 246.148 167.421 245.501 164.996 244.207C162.611 242.914 160.752 241.115 159.418 238.811C158.084 236.467 157.417 233.779 157.417 230.747V217.772C157.417 214.781 158.084 212.133 159.418 209.829C160.752 207.525 162.611 205.747 164.996 204.494C167.421 203.2 170.21 202.553 173.363 202.553C176.556 202.553 179.345 203.2 181.73 204.494C184.156 205.747 186.035 207.525 187.369 209.829C188.703 212.133 189.37 214.781 189.37 217.772V230.747C189.37 233.779 188.703 236.467 187.369 238.811C186.035 241.156 184.156 242.974 181.73 244.268C179.345 245.521 176.556 246.148 173.363 246.148ZM173.363 238.811C175.586 238.811 177.385 238.104 178.759 236.689C180.134 235.274 180.821 233.395 180.821 231.05V217.711C180.821 215.367 180.134 213.487 178.759 212.073C177.425 210.617 175.627 209.89 173.363 209.89C171.14 209.89 169.341 210.617 167.967 212.073C166.633 213.487 165.966 215.367 165.966 217.711V231.05C165.966 233.395 166.633 235.274 167.967 236.689C169.341 238.104 171.14 238.811 173.363 238.811ZM204.312 244.874C204.434 245.278 204.696 245.481 205.1 245.481H212.74C213.144 245.481 213.407 245.278 213.528 244.874L226.2 203.887C226.281 203.645 226.261 203.443 226.14 203.281C226.018 203.119 225.836 203.038 225.594 203.038H218.136C217.692 203.038 217.409 203.241 217.287 203.645L209.345 233.233C209.304 233.354 209.244 233.415 209.163 233.415C209.082 233.415 209.021 233.354 208.981 233.233L200.917 203.645C200.796 203.241 200.513 203.038 200.068 203.038H192.428C191.984 203.038 191.762 203.241 191.762 203.645L191.822 203.887L204.312 244.874ZM231.055 245.481C230.853 245.481 230.671 245.42 230.509 245.299C230.388 245.137 230.327 244.955 230.327 244.753V203.766C230.327 203.564 230.388 203.402 230.509 203.281C230.671 203.119 230.853 203.038 231.055 203.038H238.149C238.351 203.038 238.513 203.119 238.634 203.281C238.796 203.402 238.876 203.564 238.876 203.766V244.753C238.876 244.955 238.796 245.137 238.634 245.299C238.513 245.42 238.351 245.481 238.149 245.481H231.055ZM269.598 203.281C269.477 203.402 269.416 203.564 269.416 203.766L269.477 229.231C269.477 229.393 269.436 229.494 269.356 229.534C269.275 229.534 269.194 229.474 269.113 229.353L253.47 203.524C253.309 203.2 253.026 203.038 252.621 203.038H245.77C245.568 203.038 245.386 203.119 245.224 203.281C245.103 203.402 245.042 203.564 245.042 203.766V244.753C245.042 244.955 245.103 245.137 245.224 245.299C245.386 245.42 245.568 245.481 245.77 245.481H252.864C253.066 245.481 253.228 245.42 253.349 245.299C253.511 245.137 253.591 244.955 253.591 244.753L253.47 219.166C253.47 219.005 253.511 218.924 253.591 218.924C253.672 218.884 253.753 218.924 253.834 219.045L269.538 244.996C269.699 245.319 269.982 245.481 270.386 245.481H277.238C277.44 245.481 277.602 245.42 277.723 245.299C277.884 245.137 277.965 244.955 277.965 244.753V203.766C277.965 203.564 277.884 203.402 277.723 203.281C277.602 203.119 277.44 203.038 277.238 203.038H270.144C269.942 203.038 269.76 203.119 269.598 203.281ZM299.067 245.966C295.955 245.966 293.206 245.339 290.822 244.086C288.437 242.833 286.577 241.095 285.243 238.872C283.95 236.608 283.303 234.001 283.303 231.05V217.469C283.303 214.518 283.95 211.911 285.243 209.647C286.577 207.384 288.437 205.646 290.822 204.433C293.206 203.18 295.955 202.553 299.067 202.553C302.139 202.553 304.848 203.16 307.192 204.372C309.577 205.585 311.416 207.242 312.71 209.344C314.043 211.406 314.71 213.71 314.71 216.256V216.681C314.71 216.883 314.63 217.065 314.468 217.226C314.347 217.348 314.185 217.408 313.983 217.408H306.889C306.687 217.408 306.505 217.348 306.343 217.226C306.222 217.065 306.161 216.883 306.161 216.681V216.499C306.161 214.639 305.515 213.083 304.221 211.83C302.928 210.537 301.21 209.89 299.067 209.89C296.885 209.89 295.126 210.577 293.793 211.951C292.499 213.285 291.852 215.044 291.852 217.226V231.293C291.852 233.476 292.56 235.254 293.974 236.628C295.389 237.962 297.188 238.629 299.371 238.629C301.473 238.629 303.15 238.084 304.403 236.992C305.656 235.86 306.283 234.304 306.283 232.324V229.595C306.283 229.393 306.182 229.292 305.979 229.292H299.189C298.987 229.292 298.805 229.231 298.643 229.11C298.522 228.948 298.461 228.766 298.461 228.564V222.986C298.461 222.784 298.522 222.622 298.643 222.501C298.805 222.34 298.987 222.259 299.189 222.259H313.983C314.185 222.259 314.347 222.34 314.468 222.501C314.63 222.622 314.71 222.784 314.71 222.986V230.99C314.71 234.062 314.064 236.729 312.77 238.993C311.477 241.257 309.638 242.995 307.253 244.207C304.908 245.38 302.18 245.966 299.067 245.966ZM15.7643 296.604C12.6519 296.604 9.90329 295.977 7.51845 294.724C5.13361 293.471 3.27424 291.733 1.94035 289.51C0.646878 287.246 0.000142303 284.639 0.000142303 281.689V268.107C0.000142303 265.156 0.646878 262.549 1.94035 260.286C3.27424 258.022 5.13361 256.284 7.51845 255.071C9.90329 253.818 12.6519 253.192 15.7643 253.192C18.8363 253.192 21.5445 253.798 23.889 255.011C26.2738 256.223 28.113 257.881 29.4064 259.983C30.7403 262.044 31.4073 264.348 31.4073 266.895V267.319C31.4073 267.521 31.3264 267.703 31.1647 267.865C31.0435 267.986 30.8818 268.047 30.6797 268.047H23.5858C23.3837 268.047 23.2018 267.986 23.0401 267.865C22.9189 267.703 22.8582 267.521 22.8582 267.319V267.137C22.8582 265.278 22.2115 263.721 20.918 262.468C19.6245 261.175 17.9067 260.528 15.7643 260.528C13.5816 260.528 11.8233 261.215 10.4894 262.59C9.19592 263.924 8.54919 265.682 8.54919 267.865V281.931C8.54919 284.114 9.25655 285.892 10.6713 287.267C12.086 288.601 13.8848 289.268 16.0675 289.268C18.1694 289.268 19.8469 288.722 21.0999 287.63C22.353 286.499 22.9795 284.943 22.9795 282.962V280.233C22.9795 280.031 22.8784 279.93 22.6763 279.93H15.8856C15.6835 279.93 15.5016 279.87 15.3399 279.748C15.2187 279.587 15.158 279.405 15.158 279.203V273.625C15.158 273.423 15.2187 273.261 15.3399 273.14C15.5016 272.978 15.6835 272.897 15.8856 272.897H30.6797C30.8818 272.897 31.0435 272.978 31.1647 273.14C31.3264 273.261 31.4073 273.423 31.4073 273.625V281.628C31.4073 284.7 30.7605 287.368 29.4671 289.631C28.1736 291.895 26.3344 293.633 23.9496 294.846C21.6052 296.018 18.8768 296.604 15.7643 296.604ZM66.2282 260.286C66.2282 260.488 66.1474 260.67 65.9857 260.831C65.8644 260.953 65.7028 261.013 65.5007 261.013H45.6135C45.4114 261.013 45.3104 261.114 45.3104 261.316V270.714C45.3104 270.916 45.4114 271.017 45.6135 271.017H58.6493C58.8514 271.017 59.0131 271.098 59.1343 271.26C59.296 271.381 59.3769 271.543 59.3769 271.745V277.626C59.3769 277.828 59.296 278.01 59.1343 278.172C59.0131 278.293 58.8514 278.354 58.6493 278.354H45.6135C45.4114 278.354 45.3104 278.455 45.3104 278.657V288.479C45.3104 288.681 45.4114 288.783 45.6135 288.783H65.5007C65.7028 288.783 65.8644 288.863 65.9857 289.025C66.1474 289.146 66.2282 289.308 66.2282 289.51V295.391C66.2282 295.593 66.1474 295.775 65.9857 295.937C65.8644 296.058 65.7028 296.119 65.5007 296.119H37.4889C37.2868 296.119 37.1049 296.058 36.9432 295.937C36.8219 295.775 36.7613 295.593 36.7613 295.391V254.404C36.7613 254.202 36.8219 254.041 36.9432 253.919C37.1049 253.758 37.2868 253.677 37.4889 253.677H65.5007C65.7028 253.677 65.8644 253.758 65.9857 253.919C66.1474 254.041 66.2282 254.202 66.2282 254.404V260.286ZM100.727 253.919C100.605 253.758 100.444 253.677 100.242 253.677H69.6833C69.4812 253.677 69.2993 253.758 69.1376 253.919C69.0163 254.041 68.9557 254.202 68.9557 254.404V260.346C68.9557 260.548 69.0163 260.73 69.1376 260.892C69.2993 261.013 69.4812 261.074 69.6833 261.074H80.2332C80.4353 261.074 80.5363 261.175 80.5363 261.377V295.391C80.5363 295.593 80.597 295.775 80.7182 295.937C80.8799 296.058 81.0618 296.119 81.2639 296.119H88.3578C88.5599 296.119 88.7216 296.058 88.8428 295.937C89.0045 295.775 89.0854 295.593 89.0854 295.391V261.377C89.0854 261.175 89.1864 261.074 89.3885 261.074H100.242C100.444 261.074 100.605 261.013 100.727 260.892C100.888 260.73 100.969 260.548 100.969 260.346V254.404C100.969 254.202 100.888 254.041 100.727 253.919ZM143.421 254.162C143.623 253.839 143.906 253.677 144.27 253.677H151.363C151.566 253.677 151.727 253.758 151.848 253.919C152.01 254.041 152.091 254.202 152.091 254.404V295.391C152.091 295.593 152.01 295.775 151.848 295.937C151.727 296.058 151.566 296.119 151.363 296.119H144.27C144.067 296.119 143.886 296.058 143.724 295.937C143.603 295.775 143.542 295.593 143.542 295.391V268.653C143.542 268.491 143.502 268.41 143.421 268.41C143.34 268.41 143.259 268.471 143.178 268.592L136.751 278.657C136.549 278.98 136.266 279.142 135.902 279.142H132.325C131.961 279.142 131.678 278.98 131.476 278.657L125.049 268.592C124.968 268.471 124.888 268.431 124.807 268.471C124.726 268.471 124.686 268.552 124.686 268.713V295.391C124.686 295.593 124.605 295.775 124.443 295.937C124.322 296.058 124.16 296.119 123.958 296.119H116.864C116.662 296.119 116.48 296.058 116.318 295.937C116.197 295.775 116.136 295.593 116.136 295.391V254.404C116.136 254.202 116.197 254.041 116.318 253.919C116.48 253.758 116.662 253.677 116.864 253.677H123.958C124.322 253.677 124.605 253.839 124.807 254.162L133.902 268.289C134.023 268.532 134.144 268.532 134.265 268.289L143.421 254.162ZM164.996 294.846C167.421 296.139 170.21 296.786 173.363 296.786C176.556 296.786 179.345 296.159 181.73 294.906C184.156 293.613 186.035 291.794 187.369 289.449C188.703 287.105 189.37 284.417 189.37 281.385V268.41C189.37 265.419 188.703 262.772 187.369 260.468C186.035 258.164 184.156 256.385 181.73 255.132C179.345 253.839 176.556 253.192 173.363 253.192C170.21 253.192 167.421 253.839 164.996 255.132C162.611 256.385 160.752 258.164 159.418 260.468C158.084 262.772 157.417 265.419 157.417 268.41V281.385C157.417 284.417 158.084 287.105 159.418 289.449C160.752 291.753 162.611 293.552 164.996 294.846ZM178.759 287.327C177.385 288.742 175.586 289.449 173.363 289.449C171.14 289.449 169.341 288.742 167.967 287.327C166.633 285.913 165.966 284.033 165.966 281.689V268.35C165.966 266.005 166.633 264.126 167.967 262.711C169.341 261.256 171.14 260.528 173.363 260.528C175.627 260.528 177.425 261.256 178.759 262.711C180.134 264.126 180.821 266.005 180.821 268.35V281.689C180.821 284.033 180.134 285.913 178.759 287.327ZM205.1 296.119C204.696 296.119 204.434 295.917 204.312 295.513L191.822 254.526L191.762 254.283C191.762 253.879 191.984 253.677 192.428 253.677H200.068C200.513 253.677 200.796 253.879 200.917 254.283L208.981 283.871C209.021 283.993 209.082 284.053 209.163 284.053C209.244 284.053 209.304 283.993 209.345 283.871L217.287 254.283C217.409 253.879 217.692 253.677 218.136 253.677H225.594C225.836 253.677 226.018 253.758 226.14 253.919C226.261 254.081 226.281 254.283 226.2 254.526L213.528 295.513C213.407 295.917 213.144 296.119 212.74 296.119H205.1ZM230.509 295.937C230.671 296.058 230.853 296.119 231.055 296.119H238.149C238.351 296.119 238.513 296.058 238.634 295.937C238.796 295.775 238.876 295.593 238.876 295.391V254.404C238.876 254.202 238.796 254.041 238.634 253.919C238.513 253.758 238.351 253.677 238.149 253.677H231.055C230.853 253.677 230.671 253.758 230.509 253.919C230.388 254.041 230.327 254.202 230.327 254.404V295.391C230.327 295.593 230.388 295.775 230.509 295.937ZM269.416 254.404C269.416 254.202 269.477 254.041 269.598 253.919C269.76 253.758 269.942 253.677 270.144 253.677H277.238C277.44 253.677 277.602 253.758 277.723 253.919C277.884 254.041 277.965 254.202 277.965 254.404V295.391C277.965 295.593 277.884 295.775 277.723 295.937C277.602 296.058 277.44 296.119 277.238 296.119H270.386C269.982 296.119 269.699 295.957 269.538 295.634L253.834 269.684C253.753 269.562 253.672 269.522 253.591 269.562C253.511 269.562 253.47 269.643 253.47 269.805L253.591 295.391C253.591 295.593 253.511 295.775 253.349 295.937C253.228 296.058 253.066 296.119 252.864 296.119H245.77C245.568 296.119 245.386 296.058 245.224 295.937C245.103 295.775 245.042 295.593 245.042 295.391V254.404C245.042 254.202 245.103 254.041 245.224 253.919C245.386 253.758 245.568 253.677 245.77 253.677H252.621C253.026 253.677 253.309 253.839 253.47 254.162L269.113 279.991C269.194 280.112 269.275 280.173 269.356 280.173C269.436 280.132 269.477 280.031 269.477 279.87L269.416 254.404ZM290.822 294.724C293.206 295.977 295.955 296.604 299.067 296.604C302.18 296.604 304.908 296.018 307.253 294.846C309.638 293.633 311.477 291.895 312.77 289.631C314.064 287.368 314.71 284.7 314.71 281.628V273.625C314.71 273.423 314.63 273.261 314.468 273.14C314.347 272.978 314.185 272.897 313.983 272.897H299.189C298.987 272.897 298.805 272.978 298.643 273.14C298.522 273.261 298.461 273.423 298.461 273.625V279.203C298.461 279.405 298.522 279.587 298.643 279.748C298.805 279.87 298.987 279.93 299.189 279.93H305.979C306.182 279.93 306.283 280.031 306.283 280.233V282.962C306.283 284.943 305.656 286.499 304.403 287.63C303.15 288.722 301.473 289.268 299.371 289.268C297.188 289.268 295.389 288.601 293.974 287.267C292.56 285.892 291.852 284.114 291.852 281.931V267.865C291.852 265.682 292.499 263.924 293.793 262.59C295.126 261.215 296.885 260.528 299.067 260.528C301.21 260.528 302.928 261.175 304.221 262.468C305.515 263.721 306.161 265.278 306.161 267.137V267.319C306.161 267.521 306.222 267.703 306.343 267.865C306.505 267.986 306.687 268.047 306.889 268.047H313.983C314.185 268.047 314.347 267.986 314.468 267.865C314.63 267.703 314.71 267.521 314.71 267.319V266.895C314.71 264.348 314.043 262.044 312.71 259.983C311.416 257.881 309.577 256.223 307.192 255.011C304.848 253.798 302.139 253.192 299.067 253.192C295.955 253.192 293.206 253.818 290.822 255.071C288.437 256.284 286.577 258.022 285.243 260.286C283.95 262.549 283.303 265.156 283.303 268.107V281.689C283.303 284.639 283.95 287.246 285.243 289.51C286.577 291.733 288.437 293.471 290.822 294.724ZM7.51845 345.363C9.90329 346.616 12.6519 347.242 15.7643 347.242C18.8768 347.242 21.6052 346.656 23.9496 345.484C26.3344 344.271 28.1736 342.533 29.4671 340.27C30.7605 338.006 31.4073 335.338 31.4073 332.266V324.263C31.4073 324.061 31.3264 323.899 31.1647 323.778C31.0435 323.616 30.8818 323.535 30.6797 323.535H15.8856C15.6835 323.535 15.5016 323.616 15.3399 323.778C15.2187 323.899 15.158 324.061 15.158 324.263V329.841C15.158 330.043 15.2187 330.225 15.3399 330.387C15.5016 330.508 15.6835 330.569 15.8856 330.569H22.6763C22.8784 330.569 22.9795 330.67 22.9795 330.872V333.6C22.9795 335.581 22.353 337.137 21.0999 338.269C19.8469 339.36 18.1694 339.906 16.0675 339.906C13.8848 339.906 12.086 339.239 10.6713 337.905C9.25655 336.531 8.54919 334.752 8.54919 332.57V318.503C8.54919 316.32 9.19592 314.562 10.4894 313.228C11.8233 311.854 13.5816 311.167 15.7643 311.167C17.9067 311.167 19.6245 311.813 20.918 313.107C22.2115 314.36 22.8582 315.916 22.8582 317.775V317.957C22.8582 318.159 22.9189 318.341 23.0401 318.503C23.2018 318.624 23.3837 318.685 23.5858 318.685H30.6797C30.8818 318.685 31.0435 318.624 31.1647 318.503C31.3264 318.341 31.4073 318.159 31.4073 317.957V317.533C31.4073 314.986 30.7403 312.682 29.4064 310.621C28.113 308.519 26.2738 306.862 23.889 305.649C21.5445 304.436 18.8363 303.83 15.7643 303.83C12.6519 303.83 9.90329 304.457 7.51845 305.71C5.13361 306.922 3.27424 308.66 1.94035 310.924C0.646878 313.188 0.000142303 315.795 0.000142303 318.746V332.327C0.000142303 335.278 0.646878 337.885 1.94035 340.148C3.27424 342.372 5.13361 344.11 7.51845 345.363ZM65.9857 311.47C66.1474 311.308 66.2282 311.126 66.2282 310.924V305.043C66.2282 304.841 66.1474 304.679 65.9857 304.558C65.8644 304.396 65.7028 304.315 65.5007 304.315H37.4889C37.2868 304.315 37.1049 304.396 36.9432 304.558C36.8219 304.679 36.7613 304.841 36.7613 305.043V346.03C36.7613 346.232 36.8219 346.414 36.9432 346.575C37.1049 346.697 37.2868 346.757 37.4889 346.757H65.5007C65.7028 346.757 65.8644 346.697 65.9857 346.575C66.1474 346.414 66.2282 346.232 66.2282 346.03V340.148C66.2282 339.946 66.1474 339.785 65.9857 339.663C65.8644 339.502 65.7028 339.421 65.5007 339.421H45.6135C45.4114 339.421 45.3104 339.32 45.3104 339.118V329.295C45.3104 329.093 45.4114 328.992 45.6135 328.992H58.6493C58.8514 328.992 59.0131 328.932 59.1343 328.81C59.296 328.649 59.3769 328.467 59.3769 328.265V322.383C59.3769 322.181 59.296 322.02 59.1343 321.898C59.0131 321.737 58.8514 321.656 58.6493 321.656H45.6135C45.4114 321.656 45.3104 321.555 45.3104 321.353V311.955C45.3104 311.753 45.4114 311.652 45.6135 311.652H65.5007C65.7028 311.652 65.8644 311.591 65.9857 311.47ZM100.242 304.315C100.444 304.315 100.605 304.396 100.727 304.558C100.888 304.679 100.969 304.841 100.969 305.043V310.985C100.969 311.187 100.888 311.369 100.727 311.53C100.605 311.652 100.444 311.712 100.242 311.712H89.3885C89.1864 311.712 89.0854 311.813 89.0854 312.015V346.03C89.0854 346.232 89.0045 346.414 88.8428 346.575C88.7216 346.697 88.5599 346.757 88.3578 346.757H81.2639C81.0618 346.757 80.8799 346.697 80.7182 346.575C80.597 346.414 80.5363 346.232 80.5363 346.03V312.015C80.5363 311.813 80.4353 311.712 80.2332 311.712H69.6833C69.4812 311.712 69.2993 311.652 69.1376 311.53C69.0163 311.369 68.9557 311.187 68.9557 310.985V305.043C68.9557 304.841 69.0163 304.679 69.1376 304.558C69.2993 304.396 69.4812 304.315 69.6833 304.315H100.242ZM144.27 304.315C143.906 304.315 143.623 304.477 143.421 304.8L134.265 318.927C134.144 319.17 134.023 319.17 133.902 318.927L124.807 304.8C124.605 304.477 124.322 304.315 123.958 304.315H116.864C116.662 304.315 116.48 304.396 116.318 304.558C116.197 304.679 116.136 304.841 116.136 305.043V346.03C116.136 346.232 116.197 346.414 116.318 346.575C116.48 346.697 116.662 346.757 116.864 346.757H123.958C124.16 346.757 124.322 346.697 124.443 346.575C124.605 346.414 124.686 346.232 124.686 346.03V319.352C124.686 319.19 124.726 319.109 124.807 319.109C124.888 319.069 124.968 319.109 125.049 319.231L131.476 329.295C131.678 329.619 131.961 329.78 132.325 329.78H135.902C136.266 329.78 136.549 329.619 136.751 329.295L143.178 319.231C143.259 319.109 143.34 319.049 143.421 319.049C143.502 319.049 143.542 319.13 143.542 319.291V346.03C143.542 346.232 143.603 346.414 143.724 346.575C143.886 346.697 144.067 346.757 144.27 346.757H151.363C151.566 346.757 151.727 346.697 151.848 346.575C152.01 346.414 152.091 346.232 152.091 346.03V305.043C152.091 304.841 152.01 304.679 151.848 304.558C151.727 304.396 151.566 304.315 151.363 304.315H144.27ZM173.363 347.424C170.21 347.424 167.421 346.777 164.996 345.484C162.611 344.191 160.752 342.392 159.418 340.088C158.084 337.743 157.417 335.055 157.417 332.024V319.049C157.417 316.058 158.084 313.41 159.418 311.106C160.752 308.802 162.611 307.023 164.996 305.77C167.421 304.477 170.21 303.83 173.363 303.83C176.556 303.83 179.345 304.477 181.73 305.77C184.156 307.023 186.035 308.802 187.369 311.106C188.703 313.41 189.37 316.058 189.37 319.049V332.024C189.37 335.055 188.703 337.743 187.369 340.088C186.035 342.432 184.156 344.251 181.73 345.545C179.345 346.798 176.556 347.424 173.363 347.424ZM173.363 340.088C175.586 340.088 177.385 339.38 178.759 337.966C180.134 336.551 180.821 334.671 180.821 332.327V318.988C180.821 316.644 180.134 314.764 178.759 313.349C177.425 311.894 175.627 311.167 173.363 311.167C171.14 311.167 169.341 311.894 167.967 313.349C166.633 314.764 165.966 316.644 165.966 318.988V332.327C165.966 334.671 166.633 336.551 167.967 337.966C169.341 339.38 171.14 340.088 173.363 340.088ZM204.312 346.151C204.434 346.555 204.696 346.757 205.1 346.757H212.74C213.144 346.757 213.407 346.555 213.528 346.151L226.2 305.164C226.281 304.922 226.261 304.719 226.14 304.558C226.018 304.396 225.836 304.315 225.594 304.315H218.136C217.692 304.315 217.409 304.517 217.287 304.922L209.345 334.51C209.304 334.631 209.244 334.692 209.163 334.692C209.082 334.692 209.021 334.631 208.981 334.51L200.917 304.922C200.796 304.517 200.513 304.315 200.068 304.315H192.428C191.984 304.315 191.762 304.517 191.762 304.922L191.822 305.164L204.312 346.151ZM231.055 346.757C230.853 346.757 230.671 346.697 230.509 346.575C230.388 346.414 230.327 346.232 230.327 346.03V305.043C230.327 304.841 230.388 304.679 230.509 304.558C230.671 304.396 230.853 304.315 231.055 304.315H238.149C238.351 304.315 238.513 304.396 238.634 304.558C238.796 304.679 238.876 304.841 238.876 305.043V346.03C238.876 346.232 238.796 346.414 238.634 346.575C238.513 346.697 238.351 346.757 238.149 346.757H231.055ZM269.598 304.558C269.477 304.679 269.416 304.841 269.416 305.043L269.477 330.508C269.477 330.67 269.436 330.771 269.356 330.811C269.275 330.811 269.194 330.751 269.113 330.629L253.47 304.8C253.309 304.477 253.026 304.315 252.621 304.315H245.77C245.568 304.315 245.386 304.396 245.224 304.558C245.103 304.679 245.042 304.841 245.042 305.043V346.03C245.042 346.232 245.103 346.414 245.224 346.575C245.386 346.697 245.568 346.757 245.77 346.757H252.864C253.066 346.757 253.228 346.697 253.349 346.575C253.511 346.414 253.591 346.232 253.591 346.03L253.47 320.443C253.47 320.282 253.511 320.201 253.591 320.201C253.672 320.16 253.753 320.201 253.834 320.322L269.538 346.272C269.699 346.596 269.982 346.757 270.386 346.757H277.238C277.44 346.757 277.602 346.697 277.723 346.575C277.884 346.414 277.965 346.232 277.965 346.03V305.043C277.965 304.841 277.884 304.679 277.723 304.558C277.602 304.396 277.44 304.315 277.238 304.315H270.144C269.942 304.315 269.76 304.396 269.598 304.558ZM299.067 347.242C295.955 347.242 293.206 346.616 290.822 345.363C288.437 344.11 286.577 342.372 285.243 340.148C283.95 337.885 283.303 335.278 283.303 332.327V318.746C283.303 315.795 283.95 313.188 285.243 310.924C286.577 308.66 288.437 306.922 290.822 305.71C293.206 304.457 295.955 303.83 299.067 303.83C302.139 303.83 304.848 304.436 307.192 305.649C309.577 306.862 311.416 308.519 312.71 310.621C314.043 312.682 314.71 314.986 314.71 317.533V317.957C314.71 318.159 314.63 318.341 314.468 318.503C314.347 318.624 314.185 318.685 313.983 318.685H306.889C306.687 318.685 306.505 318.624 306.343 318.503C306.222 318.341 306.161 318.159 306.161 317.957V317.775C306.161 315.916 305.515 314.36 304.221 313.107C302.928 311.813 301.21 311.167 299.067 311.167C296.885 311.167 295.126 311.854 293.793 313.228C292.499 314.562 291.852 316.32 291.852 318.503V332.57C291.852 334.752 292.56 336.531 293.974 337.905C295.389 339.239 297.188 339.906 299.371 339.906C301.473 339.906 303.15 339.36 304.403 338.269C305.656 337.137 306.283 335.581 306.283 333.6V330.872C306.283 330.67 306.182 330.569 305.979 330.569H299.189C298.987 330.569 298.805 330.508 298.643 330.387C298.522 330.225 298.461 330.043 298.461 329.841V324.263C298.461 324.061 298.522 323.899 298.643 323.778C298.805 323.616 298.987 323.535 299.189 323.535H313.983C314.185 323.535 314.347 323.616 314.468 323.778C314.63 323.899 314.71 324.061 314.71 324.263V332.266C314.71 335.338 314.064 338.006 312.77 340.27C311.477 342.533 309.638 344.271 307.253 345.484C304.908 346.656 302.18 347.242 299.067 347.242ZM15.7643 397.881C12.6519 397.881 9.90329 397.254 7.51845 396.001C5.13361 394.748 3.27424 393.01 1.94035 390.787C0.646878 388.523 0.000142303 385.916 0.000142303 382.965V369.384C0.000142303 366.433 0.646878 363.826 1.94035 361.562C3.27424 359.299 5.13361 357.561 7.51845 356.348C9.90329 355.095 12.6519 354.469 15.7643 354.469C18.8363 354.469 21.5445 355.075 23.889 356.287C26.2738 357.5 28.113 359.157 29.4064 361.259C30.7403 363.321 31.4073 365.625 31.4073 368.171V368.596C31.4073 368.798 31.3264 368.98 31.1647 369.141C31.0435 369.263 30.8818 369.323 30.6797 369.323H23.5858C23.3837 369.323 23.2018 369.263 23.0401 369.141C22.9189 368.98 22.8582 368.798 22.8582 368.596V368.414C22.8582 366.554 22.2115 364.998 20.918 363.745C19.6245 362.452 17.9067 361.805 15.7643 361.805C13.5816 361.805 11.8233 362.492 10.4894 363.866C9.19592 365.2 8.54919 366.959 8.54919 369.141V383.208C8.54919 385.391 9.25655 387.169 10.6713 388.543C12.086 389.877 13.8848 390.544 16.0675 390.544C18.1694 390.544 19.8469 389.999 21.0999 388.907C22.353 387.775 22.9795 386.219 22.9795 384.239V381.51C22.9795 381.308 22.8784 381.207 22.6763 381.207H15.8856C15.6835 381.207 15.5016 381.146 15.3399 381.025C15.2187 380.863 15.158 380.682 15.158 380.479V374.901C15.158 374.699 15.2187 374.538 15.3399 374.416C15.5016 374.255 15.6835 374.174 15.8856 374.174H30.6797C30.8818 374.174 31.0435 374.255 31.1647 374.416C31.3264 374.538 31.4073 374.699 31.4073 374.901V382.905C31.4073 385.977 30.7605 388.645 29.4671 390.908C28.1736 393.172 26.3344 394.91 23.9496 396.122C21.6052 397.295 18.8768 397.881 15.7643 397.881ZM66.2282 361.562C66.2282 361.765 66.1474 361.946 65.9857 362.108C65.8644 362.229 65.7028 362.29 65.5007 362.29H45.6135C45.4114 362.29 45.3104 362.391 45.3104 362.593V371.991C45.3104 372.193 45.4114 372.294 45.6135 372.294H58.6493C58.8514 372.294 59.0131 372.375 59.1343 372.537C59.296 372.658 59.3769 372.82 59.3769 373.022V378.903C59.3769 379.105 59.296 379.287 59.1343 379.449C59.0131 379.57 58.8514 379.631 58.6493 379.631H45.6135C45.4114 379.631 45.3104 379.732 45.3104 379.934V389.756C45.3104 389.958 45.4114 390.059 45.6135 390.059H65.5007C65.7028 390.059 65.8644 390.14 65.9857 390.302C66.1474 390.423 66.2282 390.585 66.2282 390.787V396.668C66.2282 396.87 66.1474 397.052 65.9857 397.214C65.8644 397.335 65.7028 397.396 65.5007 397.396H37.4889C37.2868 397.396 37.1049 397.335 36.9432 397.214C36.8219 397.052 36.7613 396.87 36.7613 396.668V355.681C36.7613 355.479 36.8219 355.317 36.9432 355.196C37.1049 355.034 37.2868 354.954 37.4889 354.954H65.5007C65.7028 354.954 65.8644 355.034 65.9857 355.196C66.1474 355.317 66.2282 355.479 66.2282 355.681V361.562ZM100.727 355.196C100.605 355.034 100.444 354.954 100.242 354.954H69.6833C69.4812 354.954 69.2993 355.034 69.1376 355.196C69.0163 355.317 68.9557 355.479 68.9557 355.681V361.623C68.9557 361.825 69.0163 362.007 69.1376 362.169C69.2993 362.29 69.4812 362.351 69.6833 362.351H80.2332C80.4353 362.351 80.5363 362.452 80.5363 362.654V396.668C80.5363 396.87 80.597 397.052 80.7182 397.214C80.8799 397.335 81.0618 397.396 81.2639 397.396H88.3578C88.5599 397.396 88.7216 397.335 88.8428 397.214C89.0045 397.052 89.0854 396.87 89.0854 396.668V362.654C89.0854 362.452 89.1864 362.351 89.3885 362.351H100.242C100.444 362.351 100.605 362.29 100.727 362.169C100.888 362.007 100.969 361.825 100.969 361.623V355.681C100.969 355.479 100.888 355.317 100.727 355.196ZM143.421 355.439C143.623 355.115 143.906 354.954 144.27 354.954H151.363C151.566 354.954 151.727 355.034 151.848 355.196C152.01 355.317 152.091 355.479 152.091 355.681V396.668C152.091 396.87 152.01 397.052 151.848 397.214C151.727 397.335 151.566 397.396 151.363 397.396H144.27C144.067 397.396 143.886 397.335 143.724 397.214C143.603 397.052 143.542 396.87 143.542 396.668V369.93C143.542 369.768 143.502 369.687 143.421 369.687C143.34 369.687 143.259 369.748 143.178 369.869L136.751 379.934C136.549 380.257 136.266 380.419 135.902 380.419H132.325C131.961 380.419 131.678 380.257 131.476 379.934L125.049 369.869C124.968 369.748 124.888 369.707 124.807 369.748C124.726 369.748 124.686 369.829 124.686 369.99V396.668C124.686 396.87 124.605 397.052 124.443 397.214C124.322 397.335 124.16 397.396 123.958 397.396H116.864C116.662 397.396 116.48 397.335 116.318 397.214C116.197 397.052 116.136 396.87 116.136 396.668V355.681C116.136 355.479 116.197 355.317 116.318 355.196C116.48 355.034 116.662 354.954 116.864 354.954H123.958C124.322 354.954 124.605 355.115 124.807 355.439L133.902 369.566C134.023 369.808 134.144 369.808 134.265 369.566L143.421 355.439ZM164.996 396.122C167.421 397.416 170.21 398.063 173.363 398.063C176.556 398.063 179.345 397.436 181.73 396.183C184.156 394.89 186.035 393.071 187.369 390.726C188.703 388.382 189.37 385.694 189.37 382.662V369.687C189.37 366.696 188.703 364.048 187.369 361.744C186.035 359.44 184.156 357.662 181.73 356.409C179.345 355.115 176.556 354.469 173.363 354.469C170.21 354.469 167.421 355.115 164.996 356.409C162.611 357.662 160.752 359.44 159.418 361.744C158.084 364.048 157.417 366.696 157.417 369.687V382.662C157.417 385.694 158.084 388.382 159.418 390.726C160.752 393.03 162.611 394.829 164.996 396.122ZM178.759 388.604C177.385 390.019 175.586 390.726 173.363 390.726C171.14 390.726 169.341 390.019 167.967 388.604C166.633 387.189 165.966 385.31 165.966 382.965V369.626C165.966 367.282 166.633 365.402 167.967 363.988C169.341 362.533 171.14 361.805 173.363 361.805C175.627 361.805 177.425 362.533 178.759 363.988C180.134 365.402 180.821 367.282 180.821 369.626V382.965C180.821 385.31 180.134 387.189 178.759 388.604ZM205.1 397.396C204.696 397.396 204.434 397.194 204.312 396.789L191.822 355.802L191.762 355.56C191.762 355.156 191.984 354.954 192.428 354.954H200.068C200.513 354.954 200.796 355.156 200.917 355.56L208.981 385.148C209.021 385.269 209.082 385.33 209.163 385.33C209.244 385.33 209.304 385.269 209.345 385.148L217.287 355.56C217.409 355.156 217.692 354.954 218.136 354.954H225.594C225.836 354.954 226.018 355.034 226.14 355.196C226.261 355.358 226.281 355.56 226.2 355.802L213.528 396.789C213.407 397.194 213.144 397.396 212.74 397.396H205.1ZM230.509 397.214C230.671 397.335 230.853 397.396 231.055 397.396H238.149C238.351 397.396 238.513 397.335 238.634 397.214C238.796 397.052 238.876 396.87 238.876 396.668V355.681C238.876 355.479 238.796 355.317 238.634 355.196C238.513 355.034 238.351 354.954 238.149 354.954H231.055C230.853 354.954 230.671 355.034 230.509 355.196C230.388 355.317 230.327 355.479 230.327 355.681V396.668C230.327 396.87 230.388 397.052 230.509 397.214ZM269.416 355.681C269.416 355.479 269.477 355.317 269.598 355.196C269.76 355.034 269.942 354.954 270.144 354.954H277.238C277.44 354.954 277.602 355.034 277.723 355.196C277.884 355.317 277.965 355.479 277.965 355.681V396.668C277.965 396.87 277.884 397.052 277.723 397.214C277.602 397.335 277.44 397.396 277.238 397.396H270.386C269.982 397.396 269.699 397.234 269.538 396.911L253.834 370.96C253.753 370.839 253.672 370.799 253.591 370.839C253.511 370.839 253.47 370.92 253.47 371.082L253.591 396.668C253.591 396.87 253.511 397.052 253.349 397.214C253.228 397.335 253.066 397.396 252.864 397.396H245.77C245.568 397.396 245.386 397.335 245.224 397.214C245.103 397.052 245.042 396.87 245.042 396.668V355.681C245.042 355.479 245.103 355.317 245.224 355.196C245.386 355.034 245.568 354.954 245.77 354.954H252.621C253.026 354.954 253.309 355.115 253.47 355.439L269.113 381.268C269.194 381.389 269.275 381.45 269.356 381.45C269.436 381.409 269.477 381.308 269.477 381.146L269.416 355.681ZM290.822 396.001C293.206 397.254 295.955 397.881 299.067 397.881C302.18 397.881 304.908 397.295 307.253 396.122C309.638 394.91 311.477 393.172 312.77 390.908C314.064 388.645 314.71 385.977 314.71 382.905V374.901C314.71 374.699 314.63 374.538 314.468 374.416C314.347 374.255 314.185 374.174 313.983 374.174H299.189C298.987 374.174 298.805 374.255 298.643 374.416C298.522 374.538 298.461 374.699 298.461 374.901V380.479C298.461 380.682 298.522 380.863 298.643 381.025C298.805 381.146 298.987 381.207 299.189 381.207H305.979C306.182 381.207 306.283 381.308 306.283 381.51V384.239C306.283 386.219 305.656 387.775 304.403 388.907C303.15 389.999 301.473 390.544 299.371 390.544C297.188 390.544 295.389 389.877 293.974 388.543C292.56 387.169 291.852 385.391 291.852 383.208V369.141C291.852 366.959 292.499 365.2 293.793 363.866C295.126 362.492 296.885 361.805 299.067 361.805C301.21 361.805 302.928 362.452 304.221 363.745C305.515 364.998 306.161 366.554 306.161 368.414V368.596C306.161 368.798 306.222 368.98 306.343 369.141C306.505 369.263 306.687 369.323 306.889 369.323H313.983C314.185 369.323 314.347 369.263 314.468 369.141C314.63 368.98 314.71 368.798 314.71 368.596V368.171C314.71 365.625 314.043 363.321 312.71 361.259C311.416 359.157 309.577 357.5 307.192 356.287C304.848 355.075 302.139 354.469 299.067 354.469C295.955 354.469 293.206 355.095 290.822 356.348C288.437 357.561 286.577 359.299 285.243 361.562C283.95 363.826 283.303 366.433 283.303 369.384V382.965C283.303 385.916 283.95 388.523 285.243 390.787C286.577 393.01 288.437 394.748 290.822 396.001Z" fill="url(#paint0_linear_6440_918)"/>
<defs>
<linearGradient id="paint0_linear_6440_918" x1="55.8873" y1="-9.52894" x2="190.505" y2="404.654" gradientUnits="userSpaceOnUse">
<stop stop-color="#77D1F2"/>
<stop offset="0.357003" stop-color="#65F0F5"/>
<stop offset="0.648675" stop-color="#F4A8E8"/>
<stop offset="1" stop-color="#2AA6B3"/>
</linearGradient>
</defs>
</svg>
