<svg width="154" height="37" viewBox="0 0 154 37" fill="none" xmlns="http://www.w3.org/2000/svg">
<path d="M77.2299 20.6041C74.1325 20.6041 71.6079 22.9601 71.6079 26.2051C71.6079 29.4303 74.1325 31.806 77.2299 31.806C80.3287 31.806 82.8533 29.4303 82.8533 26.2051C82.852 22.9601 80.3274 20.6041 77.2299 20.6041ZM77.2299 29.6015C75.5324 29.6015 74.0693 28.2016 74.0693 26.2064C74.0693 24.1901 75.5337 22.8113 77.2299 22.8113C78.9275 22.8113 80.3906 24.1901 80.3906 26.2064C80.3906 28.2002 78.9275 29.6015 77.2299 29.6015ZM64.9639 20.6041C61.8664 20.6041 59.3419 22.9601 59.3419 26.2051C59.3419 29.4303 61.8664 31.806 64.9639 31.806C68.0627 31.806 70.5873 29.4303 70.5873 26.2051C70.5873 22.9601 68.0627 20.6041 64.9639 20.6041ZM64.9639 29.6015C63.2664 29.6015 61.8032 28.2016 61.8032 26.2064C61.8032 24.1901 63.2677 22.8113 64.9639 22.8113C66.6614 22.8113 68.1246 24.1901 68.1246 26.2064C68.1259 28.2002 66.6614 29.6015 64.9639 29.6015ZM50.3748 22.324V24.6998H56.0613C55.8915 26.0365 55.4463 27.0124 54.7668 27.6906C53.9397 28.5176 52.6452 29.4303 50.3748 29.4303C46.8743 29.4303 44.1377 26.6081 44.1377 23.1076C44.1377 19.6072 46.8743 16.785 50.3748 16.785C52.2633 16.785 53.6421 17.5277 54.6601 18.4825L56.3366 16.806C54.9143 15.4483 53.0271 14.4092 50.3748 14.4092C45.5798 14.4092 41.5486 18.3126 41.5486 23.1076C41.5486 27.9026 45.5798 31.806 50.3748 31.806C52.9626 31.806 54.9156 30.9566 56.4419 29.3657C58.0117 27.7959 58.5003 25.5887 58.5003 23.8069C58.5003 23.2564 58.4582 22.7468 58.3726 22.3227H50.3748V22.324ZM110.043 24.1691C109.577 22.918 108.155 20.6041 105.248 20.6041C102.363 20.6041 99.9644 22.8745 99.9644 26.2051C99.9644 29.3447 102.341 31.806 105.523 31.806C108.09 31.806 109.575 30.2363 110.192 29.3236L108.282 28.0501C107.646 28.9838 106.776 29.5988 105.523 29.5988C104.272 29.5988 103.381 29.026 102.808 27.9013L110.297 24.8038L110.043 24.1691ZM102.405 26.0365C102.341 23.8714 104.081 22.7692 105.334 22.7692C106.309 22.7692 107.136 23.2577 107.413 23.957L102.405 26.0365ZM96.3165 31.4676H98.7765V15.0044H96.3165V31.4676ZM92.284 21.8565H92.1997C91.6479 21.198 90.5864 20.6041 89.251 20.6041C86.4499 20.6041 83.8832 23.0655 83.8832 26.2275C83.8832 29.3671 86.4499 31.8074 89.251 31.8074C90.5877 31.8074 91.6479 31.2134 92.1997 30.5352H92.284V31.3412C92.284 33.4838 91.1382 34.6296 89.2932 34.6296C87.7866 34.6296 86.8529 33.5484 86.471 32.6357L84.3283 33.5273C84.9433 35.0115 86.5763 36.8368 89.2932 36.8368C92.1786 36.8368 94.6189 35.1392 94.6189 31.0014V20.9452H92.2853V21.8565H92.284ZM89.4631 29.6015C87.7655 29.6015 86.3445 28.1792 86.3445 26.2275C86.3445 24.2534 87.7655 22.8113 89.4631 22.8113C91.1382 22.8113 92.4539 24.2534 92.4539 26.2275C92.4539 28.1792 91.1382 29.6015 89.4631 29.6015ZM121.572 15.0044H115.683V31.4676H118.14V25.2305H121.57C124.294 25.2305 126.972 23.2591 126.972 20.1181C126.972 16.9772 124.295 15.0044 121.572 15.0044ZM121.635 22.939H118.14V17.2959H121.635C123.472 17.2959 124.515 18.817 124.515 20.1181C124.515 21.3929 123.472 22.939 121.635 22.939ZM136.822 20.5751C135.043 20.5751 133.2 21.3587 132.438 23.0958L134.619 24.0058C135.085 23.0958 135.954 22.7981 136.864 22.7981C138.135 22.7981 139.427 23.5606 139.448 24.9158V25.0857C139.003 24.8315 138.049 24.4509 136.885 24.4509C134.534 24.4509 132.14 25.7428 132.14 28.1568C132.14 30.36 134.068 31.7784 136.228 31.7784C137.879 31.7784 138.791 31.037 139.362 30.1678H139.446V31.4386H141.82V25.1265C141.821 22.2055 139.637 20.5751 136.822 20.5751ZM136.524 29.5975C135.721 29.5975 134.597 29.1945 134.597 28.1989C134.597 26.9281 135.996 26.4408 137.204 26.4408C138.282 26.4408 138.792 26.6739 139.448 26.9913C139.257 28.5176 137.944 29.5975 136.524 29.5975ZM150.461 20.9347L147.644 28.0725H147.56L144.637 20.9347H141.99L146.374 30.9105L143.874 36.4601H146.437L153.194 20.9347H150.461ZM128.329 31.4676H130.785V15.0044H128.329V31.4676Z" fill="#29394A"/>
<path d="M49.945 5.44859C49.945 6.55219 49.6184 7.43059 48.9639 8.08643C48.2211 8.86606 47.2519 9.25588 46.0613 9.25588C44.9209 9.25588 43.9503 8.8608 43.1535 8.07063C42.3555 7.27914 41.9564 6.29933 41.9564 5.12988C41.9564 3.95912 42.3555 2.97931 43.1535 2.18914C43.9503 1.39766 44.9209 1.00257 46.0613 1.00257C46.6276 1.00257 47.1689 1.1132 47.6825 1.33313C48.1974 1.55437 48.6096 1.84805 48.9178 2.21548L48.2238 2.91083C47.7009 2.28528 46.9806 1.97316 46.06 1.97316C45.2277 1.97316 44.5087 2.26553 43.9015 2.85025C43.2944 3.43497 42.9915 4.19485 42.9915 5.12857C42.9915 6.06228 43.2944 6.82216 43.9015 7.40689C44.5087 7.99161 45.2277 8.28397 46.06 8.28397C46.9424 8.28397 47.6786 7.99029 48.2672 7.40162C48.6491 7.01839 48.8704 6.48502 48.9297 5.80153H46.06V4.85201H49.8884C49.9279 5.05877 49.945 5.25763 49.945 5.44859Z" fill="#29394A"/>
<path d="M56.0163 2.14839H52.4184V4.65322H55.6633V5.60274H52.4184V8.10758H56.0163V9.07948H51.403V1.1778H56.0163V2.14839Z" fill="#29394A"/>
<path d="M60.2975 9.07948H59.2822V2.14839H57.0749V1.1778H62.5047V2.14839H60.2975V9.07948Z" fill="#29394A"/>
<path d="M66.4331 9.07948V1.1778H67.4485V9.07948H66.4331Z" fill="#29394A"/>
<path d="M71.9513 9.07948H70.936V2.14839H68.7288V1.1778H74.1585V2.14839H71.9513V9.07948Z" fill="#29394A"/>
<path d="M84.437 8.05884C83.66 8.85691 82.6947 9.25594 81.5397 9.25594C80.3848 9.25594 79.4195 8.85691 78.6438 8.05884C77.8668 7.26077 77.4796 6.28359 77.4796 5.12863C77.4796 3.97367 77.8668 2.99649 78.6438 2.19842C79.4195 1.40035 80.3848 1 81.5397 1C82.6881 1 83.6521 1.40167 84.4318 2.20369C85.2114 3.00571 85.6012 3.98025 85.6012 5.12863C85.6012 6.28359 85.2127 7.26077 84.437 8.05884ZM79.3931 7.39641C79.9778 7.98904 80.6929 8.28404 81.5397 8.28404C82.3865 8.28404 83.103 7.98772 83.6864 7.39641C84.2711 6.80379 84.5648 6.04786 84.5648 5.12863C84.5648 4.2094 84.2711 3.45347 83.6864 2.86085C83.103 2.26822 82.3865 1.97322 81.5397 1.97322C80.6929 1.97322 79.9778 2.26954 79.3931 2.86085C78.8097 3.45347 78.516 4.2094 78.516 5.12863C78.516 6.04786 78.8097 6.80379 79.3931 7.39641Z" fill="#29394A"/>
<path d="M87.0262 9.07948V1.1778H88.2615L92.1017 7.32399H92.1451L92.1017 5.8016V1.1778H93.1171V9.07948H92.0569L88.0389 2.63435H87.9954L88.0389 4.15673V9.07948H87.0262Z" fill="#29394A"/>
<path d="M49.945 5.44859C49.945 6.55219 49.6184 7.43059 48.9639 8.08643C48.2211 8.86606 47.2519 9.25588 46.0613 9.25588C44.9209 9.25588 43.9503 8.8608 43.1535 8.07063C42.3555 7.27914 41.9564 6.29933 41.9564 5.12988C41.9564 3.95912 42.3555 2.97931 43.1535 2.18914C43.9503 1.39766 44.9209 1.00257 46.0613 1.00257C46.6276 1.00257 47.1689 1.1132 47.6825 1.33313C48.1974 1.55437 48.6096 1.84805 48.9178 2.21548L48.2238 2.91083C47.7009 2.28528 46.9806 1.97316 46.06 1.97316C45.2277 1.97316 44.5087 2.26553 43.9015 2.85025C43.2944 3.43497 42.9915 4.19485 42.9915 5.12857C42.9915 6.06228 43.2944 6.82216 43.9015 7.40689C44.5087 7.99161 45.2277 8.28397 46.06 8.28397C46.9424 8.28397 47.6786 7.99029 48.2672 7.40162C48.6491 7.01839 48.8704 6.48502 48.9297 5.80153H46.06V4.85201H49.8884C49.9279 5.05877 49.945 5.25763 49.945 5.44859Z" stroke="#29394A" stroke-width="0.263389" stroke-miterlimit="10"/>
<path d="M56.0163 2.14839H52.4184V4.65322H55.6633V5.60274H52.4184V8.10758H56.0163V9.07948H51.403V1.1778H56.0163V2.14839Z" stroke="#29394A" stroke-width="0.263389" stroke-miterlimit="10"/>
<path d="M60.2975 9.07948H59.2822V2.14839H57.0749V1.1778H62.5047V2.14839H60.2975V9.07948Z" stroke="#29394A" stroke-width="0.263389" stroke-miterlimit="10"/>
<path d="M66.4331 9.07948V1.1778H67.4485V9.07948H66.4331Z" stroke="#29394A" stroke-width="0.263389" stroke-miterlimit="10"/>
<path d="M71.9513 9.07948H70.936V2.14839H68.7288V1.1778H74.1585V2.14839H71.9513V9.07948Z" stroke="#29394A" stroke-width="0.263389" stroke-miterlimit="10"/>
<path d="M84.437 8.05884C83.66 8.85691 82.6947 9.25594 81.5397 9.25594C80.3848 9.25594 79.4195 8.85691 78.6438 8.05884C77.8668 7.26077 77.4796 6.28359 77.4796 5.12863C77.4796 3.97367 77.8668 2.99649 78.6438 2.19842C79.4195 1.40035 80.3848 1 81.5397 1C82.6881 1 83.6521 1.40167 84.4318 2.20369C85.2114 3.00571 85.6012 3.98025 85.6012 5.12863C85.6012 6.28359 85.2127 7.26077 84.437 8.05884ZM79.3931 7.39641C79.9778 7.98904 80.6929 8.28404 81.5397 8.28404C82.3865 8.28404 83.103 7.98772 83.6864 7.39641C84.2711 6.80379 84.5648 6.04786 84.5648 5.12863C84.5648 4.2094 84.2711 3.45347 83.6864 2.86085C83.103 2.26822 82.3865 1.97322 81.5397 1.97322C80.6929 1.97322 79.9778 2.26954 79.3931 2.86085C78.8097 3.45347 78.516 4.2094 78.516 5.12863C78.516 6.04786 78.8097 6.80379 79.3931 7.39641Z" stroke="#29394A" stroke-width="0.263389" stroke-miterlimit="10"/>
<path d="M87.0262 9.07948V1.1778H88.2615L92.1017 7.32399H92.1451L92.1017 5.8016V1.1778H93.1171V9.07948H92.0569L88.0389 2.63435H87.9954L88.0389 4.15673V9.07948H87.0262Z" stroke="#29394A" stroke-width="0.263389" stroke-miterlimit="10"/>
<path fill-rule="evenodd" clip-rule="evenodd" d="M0.873568 2.45096C0.718013 2.80324 0.63208 3.2349 0.63208 3.737V32.8626C0.63208 33.3659 0.718141 33.7976 0.873917 34.1498L16.722 18.2994L0.873568 2.45096ZM1.78929 35.0969C2.3767 35.3481 3.14292 35.2684 3.97844 34.7946L22.6226 24.2L17.6532 19.2306L1.78929 35.0969ZM23.8111 23.526L29.6602 20.2028C31.5 19.1558 31.5 17.4451 29.6602 16.3995L23.8086 13.0744L18.5844 18.2993L23.8111 23.526ZM22.621 12.3996L3.97844 1.80636C3.14281 1.33151 2.37648 1.25227 1.78904 1.50398L17.6532 17.3681L22.621 12.3996Z" fill="#29394A"/>
</svg>
