<svg width="80" height="96" viewBox="0 0 80 96" fill="none" xmlns="http://www.w3.org/2000/svg">
<path d="M18.5537 6.186C19.1417 6.186 19.6597 6.30733 20.1077 6.55C20.5557 6.79267 20.901 7.138 21.1437 7.586C21.3957 8.02467 21.5217 8.53333 21.5217 9.112C21.5217 9.68133 21.3957 10.1853 21.1437 10.624C20.8917 11.0627 20.5323 11.4033 20.0657 11.646C19.6083 11.8793 19.0763 11.996 18.4697 11.996H16.2297C16.183 11.996 16.1597 12.0193 16.1597 12.066V15.832C16.1597 15.8787 16.141 15.9207 16.1037 15.958C16.0757 15.986 16.0383 16 15.9917 16H14.7037C14.657 16 14.615 15.986 14.5777 15.958C14.5497 15.9207 14.5357 15.8787 14.5357 15.832V6.354C14.5357 6.30733 14.5497 6.27 14.5777 6.242C14.615 6.20467 14.657 6.186 14.7037 6.186H18.5537ZM18.3157 10.68C18.7917 10.68 19.1743 10.54 19.4637 10.26C19.753 9.98 19.8977 9.61133 19.8977 9.154C19.8977 8.68733 19.753 8.30933 19.4637 8.02C19.1743 7.73067 18.7917 7.586 18.3157 7.586H16.2297C16.183 7.586 16.1597 7.60933 16.1597 7.656V10.61C16.1597 10.6567 16.183 10.68 16.2297 10.68H18.3157ZM25.4398 8.734C26.0278 8.734 26.5458 8.83667 26.9938 9.042C27.4418 9.24733 27.7871 9.532 28.0298 9.896C28.2725 10.2507 28.3938 10.6567 28.3938 11.114V15.832C28.3938 15.8787 28.3751 15.9207 28.3378 15.958C28.3098 15.986 28.2725 16 28.2258 16H26.9378C26.8911 16 26.8491 15.986 26.8118 15.958C26.7838 15.9207 26.7698 15.8787 26.7698 15.832V15.384C26.7698 15.356 26.7605 15.342 26.7418 15.342C26.7231 15.3327 26.7045 15.3373 26.6858 15.356C26.2285 15.86 25.5658 16.112 24.6978 16.112C23.9978 16.112 23.4191 15.9347 22.9618 15.58C22.5138 15.2253 22.2898 14.698 22.2898 13.998C22.2898 13.27 22.5418 12.7053 23.0458 12.304C23.5591 11.8933 24.2778 11.688 25.2018 11.688H26.6998C26.7465 11.688 26.7698 11.6647 26.7698 11.618V11.282C26.7698 10.918 26.6625 10.638 26.4478 10.442C26.2331 10.2367 25.9111 10.134 25.4818 10.134C25.1271 10.134 24.8378 10.1993 24.6138 10.33C24.3991 10.4513 24.2638 10.624 24.2078 10.848C24.1798 10.96 24.1145 11.0067 24.0118 10.988L22.6538 10.82C22.6071 10.8107 22.5651 10.7967 22.5278 10.778C22.4998 10.75 22.4905 10.7173 22.4998 10.68C22.5745 10.1107 22.8778 9.644 23.4098 9.28C23.9511 8.916 24.6278 8.734 25.4398 8.734ZM25.1038 14.824C25.5611 14.824 25.9531 14.7027 26.2798 14.46C26.6065 14.2173 26.7698 13.9093 26.7698 13.536V12.878C26.7698 12.8313 26.7465 12.808 26.6998 12.808H25.5238C25.0291 12.808 24.6371 12.9013 24.3478 13.088C24.0678 13.2747 23.9278 13.5407 23.9278 13.886C23.9278 14.1847 24.0351 14.418 24.2498 14.586C24.4738 14.7447 24.7585 14.824 25.1038 14.824ZM33.3563 8.762C33.6549 8.762 33.9163 8.82267 34.1403 8.944C34.2149 8.98133 34.2429 9.05133 34.2243 9.154L33.9863 10.414C33.9769 10.526 33.9116 10.5587 33.7903 10.512C33.6503 10.4653 33.4869 10.442 33.3003 10.442C33.1789 10.442 33.0856 10.4467 33.0203 10.456C32.6283 10.4747 32.3016 10.6147 32.0403 10.876C31.7789 11.128 31.6483 11.4593 31.6483 11.87V15.832C31.6483 15.8787 31.6296 15.9207 31.5923 15.958C31.5643 15.986 31.5269 16 31.4803 16H30.1923C30.1456 16 30.1036 15.986 30.0663 15.958C30.0383 15.9207 30.0243 15.8787 30.0243 15.832V9.014C30.0243 8.96733 30.0383 8.93 30.0663 8.902C30.1036 8.86467 30.1456 8.846 30.1923 8.846H31.4803C31.5269 8.846 31.5643 8.86467 31.5923 8.902C31.6296 8.93 31.6483 8.96733 31.6483 9.014V9.644C31.6483 9.68133 31.6529 9.70467 31.6623 9.714C31.6809 9.714 31.6996 9.7 31.7183 9.672C32.1103 9.06533 32.6563 8.762 33.3563 8.762ZM39.205 9.994C39.205 10.0407 39.1863 10.0827 39.149 10.12C39.121 10.148 39.0836 10.162 39.037 10.162H37.609C37.5623 10.162 37.539 10.1853 37.539 10.232V13.606C37.539 13.9607 37.6136 14.2173 37.763 14.376C37.9216 14.5347 38.169 14.614 38.505 14.614H38.925C38.9716 14.614 39.009 14.6327 39.037 14.67C39.0743 14.698 39.093 14.7353 39.093 14.782V15.832C39.093 15.9347 39.037 15.9953 38.925 16.014L38.197 16.028C37.4596 16.028 36.909 15.902 36.545 15.65C36.181 15.398 35.9943 14.922 35.985 14.222V10.232C35.985 10.1853 35.9616 10.162 35.915 10.162H35.117C35.0703 10.162 35.0283 10.148 34.991 10.12C34.963 10.0827 34.949 10.0407 34.949 9.994V9.014C34.949 8.96733 34.963 8.93 34.991 8.902C35.0283 8.86467 35.0703 8.846 35.117 8.846H35.915C35.9616 8.846 35.985 8.82267 35.985 8.776V7.138C35.985 7.09133 35.999 7.054 36.027 7.026C36.0643 6.98867 36.1063 6.97 36.153 6.97H37.371C37.4176 6.97 37.455 6.98867 37.483 7.026C37.5203 7.054 37.539 7.09133 37.539 7.138V8.776C37.539 8.82267 37.5623 8.846 37.609 8.846H39.037C39.0836 8.846 39.121 8.86467 39.149 8.902C39.1863 8.93 39.205 8.96733 39.205 9.014V9.994ZM44.0773 8.734C44.8333 8.734 45.4353 8.958 45.8833 9.406C46.3406 9.854 46.5693 10.4653 46.5693 11.24V15.832C46.5693 15.8787 46.5506 15.9207 46.5133 15.958C46.4853 15.986 46.448 16 46.4013 16H45.1133C45.0666 16 45.0246 15.986 44.9873 15.958C44.9593 15.9207 44.9453 15.8787 44.9453 15.832V11.576C44.9453 11.1467 44.824 10.8013 44.5813 10.54C44.3386 10.2693 44.0166 10.134 43.6153 10.134C43.214 10.134 42.8873 10.2647 42.6353 10.526C42.3926 10.7873 42.2713 11.1327 42.2713 11.562V15.832C42.2713 15.8787 42.2526 15.9207 42.2153 15.958C42.1873 15.986 42.15 16 42.1033 16H40.8153C40.7686 16 40.7266 15.986 40.6893 15.958C40.6613 15.9207 40.6473 15.8787 40.6473 15.832V9.014C40.6473 8.96733 40.6613 8.93 40.6893 8.902C40.7266 8.86467 40.7686 8.846 40.8153 8.846H42.1033C42.15 8.846 42.1873 8.86467 42.2153 8.902C42.2526 8.93 42.2713 8.96733 42.2713 9.014V9.462C42.2713 9.49 42.2806 9.50867 42.2993 9.518C42.318 9.52733 42.332 9.518 42.3413 9.49C42.724 8.986 43.3026 8.734 44.0773 8.734ZM54.2418 11.618C54.2792 11.8513 54.2978 12.1127 54.2978 12.402L54.2838 12.836C54.2838 12.948 54.2278 13.004 54.1158 13.004H49.7338C49.6872 13.004 49.6638 13.0273 49.6638 13.074C49.6918 13.382 49.7338 13.592 49.7898 13.704C50.0138 14.376 50.5598 14.7167 51.4278 14.726C52.0625 14.726 52.5665 14.4647 52.9398 13.942C52.9772 13.886 53.0238 13.858 53.0798 13.858C53.1172 13.858 53.1498 13.872 53.1778 13.9L54.0458 14.614C54.1298 14.6793 54.1438 14.754 54.0878 14.838C53.7985 15.2487 53.4112 15.566 52.9258 15.79C52.4498 16.014 51.9178 16.126 51.3298 16.126C50.6018 16.126 49.9812 15.9627 49.4678 15.636C48.9638 15.3093 48.5952 14.852 48.3618 14.264C48.1472 13.76 48.0398 13.06 48.0398 12.164C48.0398 11.6227 48.0958 11.184 48.2078 10.848C48.3945 10.1947 48.7445 9.68133 49.2578 9.308C49.7805 8.92533 50.4058 8.734 51.1338 8.734C52.9725 8.734 54.0085 9.69533 54.2418 11.618ZM51.1338 10.134C50.7885 10.134 50.4992 10.2227 50.2658 10.4C50.0418 10.568 49.8832 10.806 49.7898 11.114C49.7338 11.2727 49.6965 11.478 49.6778 11.73C49.6592 11.7767 49.6778 11.8 49.7338 11.8H52.5758C52.6225 11.8 52.6458 11.7767 52.6458 11.73C52.6272 11.4967 52.5992 11.3193 52.5618 11.198C52.4778 10.862 52.3098 10.6007 52.0578 10.414C51.8152 10.2273 51.5072 10.134 51.1338 10.134ZM59.1141 8.762C59.4127 8.762 59.6741 8.82267 59.8981 8.944C59.9727 8.98133 60.0007 9.05133 59.9821 9.154L59.7441 10.414C59.7347 10.526 59.6694 10.5587 59.5481 10.512C59.4081 10.4653 59.2447 10.442 59.0581 10.442C58.9367 10.442 58.8434 10.4467 58.7781 10.456C58.3861 10.4747 58.0594 10.6147 57.7981 10.876C57.5367 11.128 57.4061 11.4593 57.4061 11.87V15.832C57.4061 15.8787 57.3874 15.9207 57.3501 15.958C57.3221 15.986 57.2847 16 57.2381 16H55.9501C55.9034 16 55.8614 15.986 55.8241 15.958C55.7961 15.9207 55.7821 15.8787 55.7821 15.832V9.014C55.7821 8.96733 55.7961 8.93 55.8241 8.902C55.8614 8.86467 55.9034 8.846 55.9501 8.846H57.2381C57.2847 8.846 57.3221 8.86467 57.3501 8.902C57.3874 8.93 57.4061 8.96733 57.4061 9.014V9.644C57.4061 9.68133 57.4107 9.70467 57.4201 9.714C57.4387 9.714 57.4574 9.7 57.4761 9.672C57.8681 9.06533 58.4141 8.762 59.1141 8.762ZM63.6237 16.084C63.0357 16.084 62.5177 16 62.0697 15.832C61.631 15.6547 61.2904 15.4167 61.0477 15.118C60.805 14.81 60.6837 14.4693 60.6837 14.096V13.97C60.6837 13.9233 60.6977 13.886 60.7257 13.858C60.763 13.8207 60.805 13.802 60.8517 13.802H62.0837C62.1304 13.802 62.1677 13.8207 62.1957 13.858C62.233 13.886 62.2517 13.9233 62.2517 13.97V13.998C62.2517 14.2313 62.3777 14.4367 62.6297 14.614C62.891 14.782 63.2177 14.866 63.6097 14.866C63.983 14.866 64.2864 14.7913 64.5197 14.642C64.753 14.4833 64.8697 14.2873 64.8697 14.054C64.8697 13.8393 64.7717 13.6807 64.5757 13.578C64.389 13.466 64.081 13.3493 63.6517 13.228L63.1197 13.06C62.6437 12.92 62.2424 12.7707 61.9157 12.612C61.589 12.4533 61.3137 12.2387 61.0897 11.968C60.8657 11.688 60.7537 11.3333 60.7537 10.904C60.7537 10.2507 61.0104 9.73267 61.5237 9.35C62.037 8.958 62.7137 8.762 63.5537 8.762C64.123 8.762 64.6224 8.85533 65.0517 9.042C65.481 9.21933 65.8124 9.47133 66.0457 9.798C66.279 10.1153 66.3957 10.4793 66.3957 10.89C66.3957 10.9367 66.377 10.9787 66.3397 11.016C66.3117 11.044 66.2744 11.058 66.2277 11.058H65.0377C64.991 11.058 64.949 11.044 64.9117 11.016C64.8837 10.9787 64.8697 10.9367 64.8697 10.89C64.8697 10.6473 64.7484 10.4467 64.5057 10.288C64.2724 10.12 63.9504 10.036 63.5397 10.036C63.1757 10.036 62.877 10.106 62.6437 10.246C62.4197 10.3767 62.3077 10.5633 62.3077 10.806C62.3077 11.03 62.415 11.2027 62.6297 11.324C62.8537 11.436 63.2224 11.562 63.7357 11.702L64.0437 11.786C64.5384 11.9353 64.9537 12.0893 65.2897 12.248C65.6257 12.3973 65.9104 12.612 66.1437 12.892C66.377 13.1627 66.4937 13.5173 66.4937 13.956C66.4937 14.6187 66.2324 15.1413 65.7097 15.524C65.187 15.8973 64.4917 16.084 63.6237 16.084Z" fill="white"/>
<path d="M29.1846 38.2874H50.8153V77.1542H29.1846V38.2874Z" fill="#FF5F00"/>
<path d="M14.5582 94.9396V90.8196C14.5582 89.2399 13.5966 88.2102 11.9484 88.2102C11.1244 88.2102 10.2317 88.4848 9.61357 89.3776C9.1331 88.6221 8.44648 88.2102 7.4164 88.2102C6.72947 88.2102 6.04317 88.416 5.49356 89.1714V88.3475H4.05151V94.9396H5.49356V91.3001C5.49356 90.133 6.11168 89.5834 7.07325 89.5834C8.0342 89.5834 8.5153 90.2015 8.5153 91.3001V94.9396H9.95735V91.3001C9.95735 90.133 10.6437 89.5834 11.5364 89.5834C12.498 89.5834 12.9785 90.2015 12.9785 91.3001V94.9396H14.5582ZM35.9139 88.3475H33.5795V86.3561H32.1374V88.3475H30.8327V89.6519H32.1371V92.6736C32.1371 94.1845 32.7552 95.077 34.4034 95.077C35.0215 95.077 35.7078 94.8711 36.1889 94.5965L35.7766 93.3603C35.3647 93.6349 34.8842 93.7037 34.5407 93.7037C33.8541 93.7037 33.5795 93.2918 33.5795 92.6048V89.6519H35.9139V88.3475ZM48.1373 88.2099C47.3133 88.2099 46.7641 88.6221 46.4206 89.1714V88.3475H44.9785V94.9396H46.4206V91.2316C46.4206 90.133 46.9011 89.5149 47.7938 89.5149C48.0685 89.5149 48.4119 89.5837 48.6866 89.6522L49.0986 88.279C48.8239 88.2102 48.4119 88.2102 48.1373 88.2102V88.2099ZM29.6653 88.8968C28.9783 88.416 28.0171 88.2102 26.987 88.2102C25.3391 88.2102 24.2405 89.0341 24.2405 90.3388C24.2405 91.4377 25.0645 92.0555 26.5065 92.2617L27.1931 92.3305C27.9486 92.4675 28.3605 92.6736 28.3605 93.0171C28.3605 93.4976 27.8113 93.841 26.8497 93.841C25.8884 93.841 25.133 93.4976 24.6522 93.1544L23.9656 94.253C24.721 94.8023 25.7511 95.077 26.7809 95.077C28.7037 95.077 29.8026 94.1845 29.8026 92.9483C29.8026 91.7809 28.9098 91.1628 27.5363 90.9569L26.8497 90.8881C26.2316 90.8193 25.7511 90.6823 25.7511 90.2703C25.7511 89.7895 26.2316 89.5149 26.987 89.5149C27.8113 89.5149 28.6352 89.858 29.0472 90.0642L29.6653 88.8968ZM67.9828 88.2102C67.1586 88.2102 66.6093 88.6221 66.2658 89.1714V88.3475H64.8238V94.9396H66.2658V91.2316C66.2658 90.133 66.7466 89.5149 67.6391 89.5149C67.914 89.5149 68.2575 89.5837 68.5321 89.6522L68.9441 88.279C68.6695 88.2102 68.2575 88.2102 67.9828 88.2102ZM49.5793 91.6436C49.5793 93.6349 50.9526 95.077 53.0816 95.077C54.0428 95.077 54.7294 94.8711 55.416 94.3218L54.7294 93.1544C54.1801 93.5664 53.6308 93.7722 53.0127 93.7722C51.8453 93.7722 51.0214 92.9483 51.0214 91.6436C51.0214 90.4077 51.8453 89.5834 53.0127 89.5149C53.6308 89.5149 54.1801 89.7207 54.7294 90.133L55.416 88.9656C54.7294 88.416 54.0428 88.2102 53.0816 88.2102C50.9526 88.2102 49.5793 89.6522 49.5793 91.6436ZM62.9013 91.6436V88.3475H61.4592V89.1714C60.9784 88.5536 60.2918 88.2102 59.399 88.2102C57.545 88.2102 56.103 89.6522 56.103 91.6436C56.103 93.6349 57.545 95.077 59.399 95.077C60.3603 95.077 61.0472 94.7338 61.4592 94.1157V94.9396H62.9013V91.6436ZM57.6135 91.6436C57.6135 90.4762 58.369 89.5149 59.6049 89.5149C60.7723 89.5149 61.5965 90.4077 61.5965 91.6436C61.5965 92.811 60.7723 93.7722 59.6049 93.7722C58.369 93.7034 57.6135 92.811 57.6135 91.6436ZM40.3777 88.2102C38.4549 88.2102 37.0814 89.5834 37.0814 91.6436C37.0814 93.7037 38.4546 95.077 40.4462 95.077C41.4075 95.077 42.3691 94.8023 43.1245 94.1845L42.4376 93.1544C41.8883 93.5664 41.2017 93.841 40.5151 93.841C39.6223 93.841 38.7295 93.4291 38.5234 92.2614H43.3992V91.7124C43.468 89.5834 42.2318 88.2102 40.3774 88.2102H40.3777ZM40.3777 89.4461C41.2702 89.4461 41.8886 89.9957 42.0256 91.0258H38.5922C38.7295 90.133 39.3477 89.4461 40.3777 89.4461ZM76.1544 91.6436V85.738H74.7123V89.1714C74.2315 88.5536 73.5449 88.2102 72.6522 88.2102C70.7981 88.2102 69.3561 89.6522 69.3561 91.6436C69.3561 93.6349 70.7981 95.077 72.6522 95.077C73.6137 95.077 74.3003 94.7338 74.7123 94.1157V94.9396H76.1544V91.6436ZM70.867 91.6436C70.867 90.4762 71.6221 89.5149 72.8583 89.5149C74.0257 89.5149 74.8496 90.4077 74.8496 91.6436C74.8496 92.811 74.0257 93.7722 72.8583 93.7722C71.6221 93.7034 70.867 92.811 70.867 91.6436ZM22.6609 91.6436V88.3475H21.2188V89.1714C20.738 88.5536 20.0514 88.2102 19.1586 88.2102C17.3046 88.2102 15.8626 89.6522 15.8626 91.6436C15.8626 93.6349 17.3046 95.077 19.1586 95.077C20.1202 95.077 20.8068 94.7338 21.2188 94.1157V94.9396H22.6609V91.6436ZM17.3046 91.6436C17.3046 90.4762 18.0601 89.5149 19.296 89.5149C20.4634 89.5149 21.2876 90.4077 21.2876 91.6436C21.2876 92.811 20.4634 93.7722 19.296 93.7722C18.0601 93.7034 17.3046 92.811 17.3046 91.6436Z" fill="#FDFDFE"/>
<path d="M30.558 57.7215C30.558 49.8246 34.2661 42.8202 39.9655 38.2879C35.7769 34.9918 30.4895 33.0005 24.7213 33.0005C11.0556 33.0005 0 44.0561 0 57.7215C0 71.3866 11.0556 82.4425 24.721 82.4425C30.4892 82.4425 35.7766 80.4512 39.9655 77.1548C34.2661 72.6913 30.558 65.6184 30.558 57.7215Z" fill="#EB001B"/>
<path d="M79.9996 57.721C79.9996 71.3861 68.944 82.442 55.2786 82.442C49.5104 82.442 44.223 80.4507 40.0342 77.1543C45.8024 72.6223 49.4419 65.6179 49.4419 57.721C49.4419 49.8241 45.7336 42.8197 40.0342 38.2874C44.2227 34.9913 49.5104 33 55.2786 33C68.944 33 79.9999 44.1244 79.9999 57.721H79.9996Z" fill="#F79E1B"/>
</svg>
